<?xml version="1.0" standalone="no"?><!DOCTYPE svg PUBLIC "-//W3C//DTD SVG 1.1//EN" "http://www.w3.org/Graphics/SVG/1.1/DTD/svg11.dtd"><svg t="1686413147044" class="icon" viewBox="0 0 1024 1024" version="1.1" xmlns="http://www.w3.org/2000/svg" p-id="2504" xmlns:xlink="http://www.w3.org/1999/xlink" width="200" height="200"><path d="M981.6 314.6c-25.7-60.7-62.4-115.2-109.2-162-46.8-46.8-101.3-83.5-162-109.2C647.5 16.8 580.8 3.3 512 3.3c-68.8 0-135.5 13.5-198.4 40.1-60.7 25.7-115.2 62.4-162 109.2s-83.5 101.3-109.2 162C15.8 377.5 2.3 444.2 2.3 513c0 68.8 13.5 135.5 40.1 198.4 25.7 60.7 62.4 115.2 109.2 162s101.3 83.5 162 109.2c62.8 26.6 129.6 40.1 198.4 40.1 68.8 0 135.5-13.5 198.4-40.1 60.7-25.7 115.2-62.4 162-109.2 46.8-46.8 83.5-101.3 109.2-162 26.6-62.8 40.1-129.6 40.1-198.4 0-68.8-13.5-135.5-40.1-198.4zM512 982.7C253 982.7 42.3 772 42.3 513S253 43.3 512 43.3 981.7 254 981.7 513 771 982.7 512 982.7z" fill="#727171" p-id="2505"></path><path d="M677.2 683.9c-6.1-8.2-13.3-20.2-21.8-35.8l-29.3-53.4c-11.5-21.3-22-36.9-31.4-47-9.4-10.1-20.8-17.8-34-23.3v-2.6c32.8-11.7 57.3-28 73.7-48.8 16.4-20.8 24.6-46.1 24.6-75.8 0-38.8-12.6-67.5-37.7-85.9-25.2-18.4-63.1-27.7-113.9-27.7H346.3v15.9c10 2.8 17 5.4 21.1 7.6 4.1 2.3 7.4 5.3 9.9 9.1s4.3 9.1 5.4 15.9c1.1 6.8 1.6 17.7 1.6 32.7v281.5c0 16.1-0.7 28-2.1 35.8-1.4 7.8-4.4 13.8-8.9 18.1s-13.6 8.1-27 11.6v15.9h137.3v-15.9c-10-2.8-17-5.4-21.1-7.6-4.1-2.3-7.4-5.2-9.8-8.8-2.4-3.6-4.2-8.9-5.4-15.9-1.2-7-1.8-18.4-1.8-34V534.8h35.8c10.6 0 18.6 0.6 23.9 1.8 5.3 1.2 10.3 3.4 15 6.5 4.7 3.1 9.8 8.6 15.3 16.4 5.5 7.8 12.6 20 21.3 36.4l28.6 54.3c7.2 13.7 14.4 27.1 21.8 40.3 7.4 13.2 15.2 25.6 23.4 37.1h90.1v-15.9c-10.4-1.7-18.8-4.8-25.1-9.1-6.2-4.2-12.4-10.5-18.4-18.7zM528.1 502.8c-11.7 2.7-27 4.1-45.9 4.1h-36.8V313.6c12.1-0.9 28-1.3 47.5-1.3 24.3 0 43.6 3.6 57.9 10.7 14.3 7.2 25 17.6 32 31.2 7 13.7 10.6 30.8 10.6 51.4 0 19.7-3 36.4-8.9 49.9-6 13.6-13.9 24.1-23.9 31.7-9.9 7.7-20.7 12.9-32.5 15.6z" fill="#4D4D4D" p-id="2506"></path></svg>