<?xml version="1.0" standalone="no"?><!DOCTYPE svg PUBLIC "-//W3C//DTD SVG 1.1//EN" "http://www.w3.org/Graphics/SVG/1.1/DTD/svg11.dtd"><svg t="1686413641247" class="icon" viewBox="0 0 1049 1024" version="1.1" xmlns="http://www.w3.org/2000/svg" p-id="1590" xmlns:xlink="http://www.w3.org/1999/xlink" width="204.8828125" height="200"><path d="M346.624 207.4112c9.728 0.3072 19.3536 2.0224 28.5952 5.12l4.9152 1.8432 337.8688 96.256-12.6464 44.3392-338.5344-96.4608-2.6112-0.9216a53.5552 53.5552 0 0 0-19.0464-4.1216c-17.024-0.5376-33.5872 9.2928-42.4192 24.448l-1.8944 3.584-29.184 61.2096-41.5744-19.8144 29.184-61.184c15.872-33.3312 50.2784-55.4752 87.3472-54.2976z" fill="#666666" p-id="1591"></path><path d="M436.736 91.8016c22.8608-14.7712 52.992-17.5616 88.064-2.4832l5.2224 2.432c23.7824 11.7504 71.8336 43.3152 139.8272 90.8032l27.392 19.2 42.5728 30.2848c14.4128 10.2912 28.9536 20.736 43.52 31.232l69.9904 50.9696-27.2896 37.12-47.9488-34.9696-43.4432-31.3856-21.6064-15.4624-52.992-37.5808-30.208-21.12c-62.7456-43.52-107.0848-72.2432-123.264-79.2064-20.7872-8.96-34.7392-7.6544-44.8-1.1264a21.3504 21.3504 0 0 0-4.2496 3.456l-86.9376 98.8416-34.6112-30.4128 84.7872-96.256a61.952 61.952 0 0 1 15.9744-14.336z" fill="#666666" p-id="1592"></path><path d="M819.3536 309.76H245.5808A95.7696 95.7696 0 0 0 151.04 406.6816v169.6l22.784 0.256a49.6896 49.6896 0 0 1 48.9728 50.432c0.3072 28.0576-21.632 50.56-48.9728 50.8672l-22.784 0.256v169.856A95.7184 95.7184 0 0 0 245.5808 944.64h573.5168a95.8208 95.8208 0 0 0 94.8224-96.9216v-169.8816h-23.04a50.5088 50.5088 0 0 1-50.3552-50.6368c0-27.9808 22.5792-50.6368 50.3552-50.6368h23.04v-170.112a95.744 95.744 0 0 0-94.5664-96.6912zM245.8368 355.84h573.2608l3.84 0.2048a49.7152 49.7152 0 0 1 44.9024 50.1504v127.0528l-1.0752 0.256a96.7424 96.7424 0 0 0-72.32 93.696l0.128 4.9664a96.7168 96.7168 0 0 0 72.192 88.704l1.0752 0.256v126.8224a49.7408 49.7408 0 0 1-48.9984 50.6112H245.8368l-3.84-0.2048A49.6896 49.6896 0 0 1 197.12 848.2048v-127.3344l1.8176-0.4352a95.8976 95.8976 0 0 0 69.9392-93.4656l-0.0768-5.0432a95.6928 95.6928 0 0 0-69.8368-87.936L197.12 533.504v-127.0528a49.792 49.792 0 0 1 45.1072-50.432l3.584-0.1792z" fill="#666666" p-id="1593"></path><path d="M545.28 693.76a23.04 23.04 0 0 1 22.8608 20.1472L568.32 716.8v76.8a23.04 23.04 0 0 1-45.9008 2.8928L522.24 793.6v-76.8a23.04 23.04 0 0 1 23.04-23.04zM545.28 463.36a23.04 23.04 0 0 1 22.8608 20.1472L568.32 486.4v76.8a23.04 23.04 0 0 1-45.9008 2.8928L522.24 563.2v-76.8a23.04 23.04 0 0 1 23.04-23.04z" fill="#FF6D00" p-id="1594"></path></svg>