<?xml version="1.0" standalone="no"?><!DOCTYPE svg PUBLIC "-//W3C//DTD SVG 1.1//EN" "http://www.w3.org/Graphics/SVG/1.1/DTD/svg11.dtd"><svg t="1686413723891" class="icon" viewBox="0 0 1024 1024" version="1.1" xmlns="http://www.w3.org/2000/svg" p-id="3536" xmlns:xlink="http://www.w3.org/1999/xlink" width="200" height="200"><path d="M507.2 844.4c-12 0-23.9-0.7-35.7-2-40.7-4.6-80.3-17.1-117.5-37.3-1.7-0.9-2.7-2.9-2.3-4.8L423 440c1.5-16.9 5-62.4 3.2-73.1-0.8-4.7 0.2-9.1 2.8-12.7 2.7-3.7 6.7-5.8 9.9-7-3.3-6.2-8.2-12.7-12.1-12.7-3.4 0-7.5 5.7-11.1 15-2.2 5.7-4.2 12.3-6.3 19.4-13.2 43.6-33.2 109.4-148.7 122.7h-0.6c-32.3-0.5-81.8-1-86-0.7-3.9 0.3-7.3-0.9-10.3-3.6-7.3-6.7-10.9-22.9-11.1-49.6-0.1-8-1.4-194.5 0-208.3 0.2-2-0.3-3.8-0.9-5.7-0.8-3-1.9-6.7 0.7-10.2 3.9-5.2 13.5-7.3 63.2-7.3 53.8 0 299.4-1.9 462-3.1 75.4-0.6 129.9-1 135.5-1 2.5 0 5.4-0.2 8.5-0.4 11.6-0.8 25.9-1.7 35.2 7 5.7 5.3 8.5 13.5 8.5 24.4 0 9 0 27.2 0.1 49.4 0.2 63.4 0.4 159.2-0.1 168.5-0.1 1.6 0.1 3.6 0.3 5.7 0.6 6.6 1.4 15.7-5.3 22.9-7 7.5-20.1 10.9-41.4 10.6-5.5-0.1-11.3 0-17.5 0.1-26.6 0.3-59.6 0.7-92.4-10-38.7-12.6-69-37.6-92.7-76.6-0.1-0.1-0.1-0.2-0.1-0.3-12.5-24-18.1-46.7-18.1-55.1 0-4.6-4.1-16.3-7.8-17.1-1.3-0.3-4.9 2-9.7 11.5 0.9 0.5 1.9 1.1 2.9 1.9 4.3 3.7 6.7 9.9 7.2 18.5 0.3 5.5 0.2 13 0 21.8-0.3 20.1-0.7 47.7 4 56.8 7.4 14.3 65.8 323.4 72.4 358.5 0.3 1.9-0.5 3.7-2.1 4.7-1.5 0.9-37.7 22.3-94.3 33.2-21.3 4.3-42.5 6.3-63.6 6.3z m-146-45.6c80.9 42.7 157.3 40.3 207.5 30.7 46.6-8.9 79.6-25.6 89-30.7-25.9-137.3-65.8-342.4-71-352.9-5.8-11.1-5.4-37.7-5-61.1 0.1-8.6 0.2-16 0-21.2-0.6-12.8-6-13.3-7-13.3-1.6 0.3-3.1-0.4-4.1-1.7-1-1.3-1.1-3.1-0.5-4.6 2.6-5.9 10.3-24 22-21.6 10.5 2.2 15 20.4 15 25.9 0 7.3 5.4 28.4 17 50.8 50.9 83.7 123.9 82.8 177.3 82.1 6.3-0.1 12.2-0.1 17.8-0.1 18 0.2 29.7-2.4 34.7-7.7 3.9-4.2 3.4-10.2 2.9-16-0.2-2.5-0.4-4.8-0.3-7 0.5-9 0.3-104.6 0.1-167.9-0.1-22.2-0.1-40.4-0.1-49.5 0-8.4-1.9-14.3-5.7-17.9-6.4-6-18.1-5.2-28.4-4.6-3.2 0.2-6.2 0.4-9 0.4-5.6 0-60 0.4-135.4 1-162.6 1.2-408.2 3.1-462.1 3.1-14 0-51 0-55.8 3.6 0.1 0.6 0.4 1.6 0.6 2.4 0.6 2.3 1.5 5.4 1.2 9.1-1.1 10.7-0.5 140.3 0 207.3 0.2 31.1 5.2 40.3 8.1 43 1.1 1 2.1 1.4 3.5 1.2 5.9-0.5 77 0.5 86.5 0.7 109.4-12.7 127.6-72.6 140.8-116.3 2.2-7.2 4.2-14 6.5-20 5.4-13.9 11.7-20.7 19.4-20.8h0.1c12.7 0 21.1 19.2 22.7 23 0.5 1.3 0.4 2.7-0.3 4-0.7 1.2-1.9 2-3.3 2.2-1.9 0.3-7.3 1.7-9.7 5-1.2 1.6-1.5 3.5-1.1 5.8 2.4 14.1-2.9 73.2-3.2 75.7 0 0.2 0 0.3-0.1 0.5l-70.6 357.4z" p-id="3537"></path><path d="M204.6 489c-2.5 0-4.5-2-4.5-4.5V215.7c0-2.5 2-4.5 4.5-4.5s4.5 2 4.5 4.5v268.8c0 2.5-2 4.5-4.5 4.5zM349.3 463.9c-2.5 0-4.5-2-4.5-4.5V211.7c0-2.5 2-4.5 4.5-4.5s4.5 2 4.5 4.5v247.7c0 2.5-2 4.5-4.5 4.5zM674 461.1c-2.5 0-4.5-2-4.5-4.5V208.7c0-2.5 2-4.5 4.5-4.5s4.5 2 4.5 4.5v247.9c0 2.5-2 4.5-4.5 4.5zM812.4 484c-2.5 0-4.5-2-4.5-4.5V205.9c0-2.5 2-4.5 4.5-4.5s4.5 2 4.5 4.5v273.6c0 2.5-2 4.5-4.5 4.5zM586.3 376.6H431.1c-2.5 0-4.5-2-4.5-4.5s2-4.5 4.5-4.5h155.1c2.5 0 4.5 2 4.5 4.5s-1.9 4.5-4.4 4.5zM586.3 403.6H430.5c-2.5 0-4.5-2-4.5-4.5s2-4.5 4.5-4.5h155.8c2.5 0 4.5 2 4.5 4.5s-2 4.5-4.5 4.5zM586.4 424.2H431.1c-2.5 0-4.5-2-4.5-4.5s2-4.5 4.5-4.5h155.2c2.5 0 4.5 2 4.5 4.5s-1.9 4.5-4.4 4.5zM590.7 448.4s-0.1 0 0 0l-163.3-3.2c-2.5 0-4.5-2.1-4.4-4.6 0-2.5 2.1-4.5 4.6-4.4l163.2 3.2c2.5 0 4.5 2.1 4.4 4.6-0.1 2.4-2.1 4.4-4.5 4.4z" p-id="3538"></path><path d="M615.6 562.1h-0.3c-55.3-3.7-96.4-34.1-121.1-58.9-26.7-26.8-40.2-52.4-40.7-53.5-1.1-2.2-0.3-4.9 1.9-6.1 2.2-1.2 4.9-0.3 6.1 1.9 0.2 0.4 13.6 25.7 39.3 51.5 23.6 23.7 62.7 52.6 115.1 56.1 2.5 0.2 4.4 2.3 4.2 4.8-0.2 2.3-2.2 4.2-4.5 4.2z" p-id="3539"></path><path d="M625.6 612.5h-0.3c-32.3-2.2-63.2-11.1-91.7-26.4-22.8-12.2-44.2-28.6-63.6-48.5-32.9-34-48.4-66.3-49.1-67.7-1.1-2.2-0.1-4.9 2.1-6 2.2-1.1 4.9-0.1 6 2.1 0.2 0.3 15.6 32.6 47.6 65.5 29.3 30.2 79.1 67.2 149.2 72 2.5 0.2 4.4 2.3 4.2 4.8-0.1 2.4-2.1 4.2-4.4 4.2zM657.2 776.7c-0.3 0-0.5 0-0.8-0.1-32-5.8-65.4-20.5-99.4-43.7-27.1-18.4-54.5-42.3-81.7-70.8-46.1-48.5-75.8-94.6-76.1-95.1-1.3-2.1-0.7-4.9 1.4-6.2 2.1-1.3 4.9-0.7 6.2 1.4 0.3 0.5 29.6 45.9 75.2 93.9 41.8 44 106.3 99 176.1 111.8 2.4 0.4 4.1 2.8 3.6 5.2-0.5 2.1-2.4 3.6-4.5 3.6zM633.4 819.6h-0.2c-34.2-1.3-68.6-12-102.1-31.9-26.6-15.8-52.8-37.4-77.8-64.3-42.4-45.6-67.1-91.1-67.3-91.6-1.2-2.2-0.4-4.9 1.8-6.1 2.2-1.2 4.9-0.4 6.1 1.8 0.2 0.4 24.5 45.1 66.1 89.8 38.2 41 99.3 90.4 173.5 93.2 2.5 0.1 4.4 2.2 4.3 4.7 0 2.5-2 4.4-4.4 4.4zM524.8 374.5c-0.6 0-1.1-0.1-1.7-0.3-2.3-0.9-3.4-3.6-2.5-5.9l59.6-146.6-18.7-30.7H490l-29.1 34.1c-1.6 1.9-4.5 2.1-6.3 0.5-1.9-1.6-2.1-4.5-0.5-6.3l30.4-35.7c0.9-1 2.1-1.6 3.4-1.6H564c1.6 0 3 0.8 3.8 2.2l21.3 34.7c0.7 1.2 0.9 2.7 0.3 4L529 371.7c-0.7 1.8-2.4 2.8-4.2 2.8z" p-id="3540"></path><path d="M483.7 374.2c-0.7 0-1.3-0.1-2-0.4-2.2-1.1-3.2-3.8-2.1-6l82.2-170c1.1-2.2 3.8-3.2 6-2.1s3.2 3.8 2.1 6l-82.2 170c-0.7 1.6-2.3 2.5-4 2.5z" p-id="3541"></path><path d="M521.3 296.4c-1.7 0-3.4-1-4.1-2.7l-41.3-95.8c-1-2.3 0.1-4.9 2.3-5.9 2.3-1 4.9 0.1 5.9 2.3l41.3 95.8c1 2.3-0.1 4.9-2.3 5.9-0.6 0.3-1.2 0.4-1.8 0.4zM502.5 335.3c-1.8 0-3.4-1-4.2-2.8l-45.1-108.6c-1-2.3 0.1-4.9 2.4-5.9s4.9 0.1 5.9 2.4L506.6 329c1 2.3-0.1 4.9-2.4 5.9-0.5 0.3-1.1 0.4-1.7 0.4z" p-id="3542"></path></svg>