<?xml version="1.0" standalone="no"?><!DOCTYPE svg PUBLIC "-//W3C//DTD SVG 1.1//EN" "http://www.w3.org/Graphics/SVG/1.1/DTD/svg11.dtd"><svg t="1686413872971" class="icon" viewBox="0 0 1024 1024" version="1.1" xmlns="http://www.w3.org/2000/svg" p-id="3687" xmlns:xlink="http://www.w3.org/1999/xlink" width="200" height="200"><path d="M980.391005 447.519841c-140.053472-92.293404-295.665985-316.043025-297.036242-318.032107-1.657568-2.939421-41.395006-72.269979-75.585115-77.728904-23.095452-3.712953-36.311797-10.939951-44.64384-18.653168a98.26065 98.26065 0 0 1-9.017171-11.050456c-1.524963-2.4311-2.806816-4.751696-3.956063-6.895484-0.950339-1.745972-1.834376-3.337238-2.696311-4.751696-0.154706-0.265211-0.375715-0.442018-0.530422-0.663027-6.829181-9.967511-20.023425-9.879107-38.256677-9.7023-4.817999 0-10.055914 0.110505-15.625344 0-29.792028-0.707229-31.847413 13.039537-31.957917 14.431895 0 0.265211-0.154706 0.596725-0.221009 0.928238s-0.221009 0.795633-0.309413 1.21555a68.115007 68.115007 0 0 1-3.116228 8.840364 0.795633 0.795633 0 0 1 0 0.198909c0 0.198908-0.198908 0.419917-0.309413 0.618825-12.86273 23.979488-48.04738 29.482615-49.064022 29.681523-43.91451 14.011977-138.683216 167.458602-142.285664 173.425848C136.047807 379.891054 44.130119 447.055722 43.20188 447.696648a4.243375 4.243375 0 0 0-1.21555 5.481026C115.847574 585.540029 306.269022 828.738453 308.346508 831.34636c7.160695 8.199438 14.476097 11.40407 21.658893 9.481291 18.829976-4.928503 27.383029-44.732244 28.333367-49.506041 0.530422-3.823458 1.060844-7.669016 1.569165-11.514574L346.956799 981.30104a10.67474 10.67474 0 0 0 2.210091 9.879107c9.481291 11.514575 46.809729 9.901208 59.849267 8.950869 4.420182 8.840364 10.630538 14.144583 18.564765 15.934757 14.144583 3.204632 29.548918-6.409264 36.4002-11.470373 26.963111 33.151366 71.142832 13.481556 83.983462 6.630274 6.453466 8.398346 13.702565 12.685923 21.592589 12.752225h0.176808c11.315666 0 20.222333-8.840364 24.001589-13.437354 38.521888 11.293565 61.086918 11.558776 68.91064 0.817734 4.420182-6.121952 2.961522-13.83517 0.596725-19.669811 9.503392 1.635467 16.155766 0.928238 20.178131-2.210091a8.442548 8.442548 0 0 0 3.536146-6.917585l-20.531746-228.545519c0.442018 2.67421 0.884036 5.193714 1.281853 7.536411 2.210091 13.569959 3.779256 22.542929 4.177072 26.742102 2.91732 31.118082 34.256412 47.516958 35.582466 48.202086a4.420182 4.420182 0 0 0 5.414723-1.259752c6.033549-8.155236 148.319213-200.190051 155.546211-223.219199 5.635732-18.012242 83.696149-120.449964 113.31137-158.397228a4.243375 4.243375 0 0 0 0.817734-3.270935 4.199173 4.199173 0 0 0-2.16589-2.828917z m-434.437604-422.127397l0.950339 1.326054a63.473816 63.473816 0 0 0 8.177337 10.409529c-9.039273 18.940481-32.046321 23.603773-43.18518 24.753021l5.900943-15.75795c17.614426-3.88976 24.99613-12.951134 28.200762-20.752755z m-53.152691-16.862995c5.657833 0.132605 11.050455 0 15.912656 0 17.327114-0.176807 26.742102 0 30.941275 5.768337 0.154706 4.154971-1.038743 19.426701-25.813864 23.957388a4.420182 4.420182 0 0 0-3.226733 2.696311l-4.420182 12.111299-3.270935-10.939951a4.287577 4.287577 0 0 0-4.066567-3.027825c-0.773532 0-18.498462-0.596725-28.907992-24.112093 0.950339-1.900678 5.215815-6.873383 22.896544-6.475567z m-27.979753 21.194773c0.530422-1.016642 0.950339-2.210091 1.414458-3.248834 9.923309 15.912656 23.117553 19.89082 29.195303 20.774857l4.287577 14.387693c-23.802681-3.248834-36.930622-15.470638-41.859125-21.238976a39.339621 39.339621 0 0 0 7.005989-10.696841z m395.142185 579.795296c-5.525228 17.680729-109.399509 160.187402-151.965863 217.693972-7.470108-4.751696-25.902268-18.498462-27.891349-39.626933-0.419917-4.420182-1.94488-13.59206-4.265476-27.360928-5.414723-32.112623-15.581142-92.337606-25.040332-177.028296l-12.973235-145.225085c-6.188255-90.061212-10.011713-195.791969-8.354144-315.004283a4.265476 4.265476 0 0 0-4.132871-4.287577 4.420182 4.420182 0 0 0-4.420182 4.022366c-1.812275 35.361457-12.199703 130.638484-38.433484 147.390975a4.199173 4.199173 0 0 0-1.856476 4.420182c0 0.353615 7.580612 35.361457 19.271994 71.363841 8.840364 27.162019 17.680729 47.892674 26.521093 61.595239l2.762614 30.941275c3.779256 55.031268 8.420447 104.249997 13.260546 147.147864l35.715072 397.064965s-2.939421 3.558247-19.404599-0.442018c-3.337238-40.091052-39.428025-467.478467-75.143097-631.290418a4.265476 4.265476 0 0 0-8.332044 1.768073c37.12953 170.552729 74.811583 628.660409 75.143097 633.257399a4.13287 4.13287 0 0 0 0.707229 1.900678v0.176807c2.210091 3.204632 7.867924 13.459455 4.177073 18.498463-2.453201 3.381439-13.260547 9.547593-59.67246-4.000265-3.005724-33.018761-30.211945-342.36521-12.1334-477.379675a4.267686 4.267686 0 0 0-8.464649-1.105045c-18.476361 137.865482 9.879107 455.124057 12.199703 480.495903-2.364797 2.961522-9.569694 11.050455-18.012242 11.050455h0.088403c-5.59153 0-11.050455-3.933962-16.177866-11.381969-1.547064-24.089993-24.730919-388.976031-17.393417-456.140699a4.287577 4.287577 0 0 0-8.508851-0.906138c-7.381704 67.562484 14.918115 419.475288 17.282912 456.251204-9.879107 5.56943-51.848737 26.410588-75.761922-6.475567-1.392357-19.183591-17.923839-258.448052 0-414.281574a4.243375 4.243375 0 0 0-3.757155-4.685393 4.420182 4.420182 0 0 0-4.729595 3.735054c-17.835435 154.706376-1.900678 390.500994-0.176807 414.922501-4.574889 3.602448-18.91838 13.83517-30.941275 11.050455-5.790439-1.303954-10.232722-5.657833-13.547859-13.150042-0.287312-15.470638-3.558247-226.644841 28.731184-641.898855a4.265476 4.265476 0 0 0-8.50885-0.640926c-30.941275 398.302616-29.283707 609.101103-28.731184 639.666663-19.559306 1.281853-46.411913 0.353615-51.539324-5.945145a2.563706 2.563706 0 0 1-0.397817-2.630009 3.447742 3.447742 0 0 0 0.176807-0.928238l27.493534-427.785231c3.757155-49.041921 6.740778-96.978797 9.105575-141.909948l0.331514-5.237916c5.414723-9.503392 48.312591-86.502965 46.721325-132.141346a4.177072 4.177072 0 0 0-1.082945-2.65211c-0.309413-0.375715-32.841954-37.925163-36.820117-145.866011a4.265476 4.265476 0 0 0-4.287577-4.066568 4.221274 4.221274 0 0 0-4.199173 4.199173c0 2.210091-0.640926 124.494431-9.083474 284.659732l-9.21608 143.39071c-5.989347 77.949913-13.923574 158.750843-24.443607 235.087389-3.049926 15.094922-11.757685 40.04685-22.100911 42.743161-3.823458 1.060844-8.199438-1.326055-12.884831-6.630273-1.900678-2.408999-188.874384-241.209341-263.663867-373.704302 16.796692-12.774326 102.194612-80.204206 218.246495-214.378835 13.260547 10.718942 65.352393 54.368241 77.242683 91.077854 0.353615 0.773532 34.963641 79.563279-70.501905 256.812584a4.177072 4.177072 0 0 0 1.392357 5.856741 4.265476 4.265476 0 0 0 2.210091 0.596725 4.420182 4.420182 0 0 0 3.690852-2.077486c108.183959-181.713689 72.446786-261.409574 71.09863-264.194288-12.730125-39.31752-66.744751-84.160269-80.0716-94.790807 13.813069-22.100911 98.304852-155.104192 135.368079-166.972382 1.436559-0.221009 24.311002-3.823458 41.593915-18.144847 6.409264 7.381704 23.29436 22.786039 53.88202 24.730919h0.574624c4.420182 0 41.085593-0.839835 55.738497-27.758744 9.392887 7.204897 23.228057 13.724666 44.732244 17.150307 25.018231 4.022366 58.655817 54.456644 69.706273 73.861244 0.685128 0.97244 29.792028 42.831565 73.949647 97.686026-11.691382 11.669281-58.456909 60.733303-72.181574 111.698003-17.548123 65.153485 50.500581 202.134931 91.320963 241.806066a4.265476 4.265476 0 0 0 2.983623 1.21555 4.243375 4.243375 0 0 0 3.005724-7.249099c-39.649034-38.543989-105.907565-170.994747-89.04457-233.584527 12.730125-47.384353 57.064552-94.790807 69.308457-107.211518 57.771781 71.142832 139.081032 161.579759 216.412119 213.715808-17.21661 22.189315-105.222437 136.141611-111.896912 157.46899z m-233.761334-219.904063a351.404483 351.404483 0 0 1-18.211151-46.411913c-9.7023-29.814129-16.48728-59.053634-18.45426-67.827696 15.470638-12.398611 25.062433-45.107959 30.941275-77.087977 0.397816 69.175851 2.519504 133.091685 5.724136 191.327586z m-232.943601-2.210091c3.801357-77.353188 5.768338-144.451553 6.78498-191.19498 9.923309 51.694031 26.145378 75.143097 30.477156 80.513618 0.419917 33.107164-23.758479 84.624388-37.262136 110.769765z" fill="#000078" p-id="3688"></path><path d="M560.186387 223.482908h-102.526125a4.243375 4.243375 0 0 0-4.265476 4.243375v24.487809a4.265476 4.265476 0 0 0 1.259752 3.005724 4.420182 4.420182 0 0 0 3.049926 1.237651l33.151366-0.331514-11.691382 162.198585c0.154706 8.287842 3.779256 12.000795 6.78498 13.680464 5.724136 3.116228 13.371051 1.21555 18.741572-0.906138 1.569165 46.411913 23.382764 49.925958 24.311002 50.058563h0.574624a4.287577 4.287577 0 0 0 4.287576-4.265475l-1.790173-220.478687h28.023955a4.243375 4.243375 0 0 0 4.265475-4.243375v-24.443607a4.243375 4.243375 0 0 0-4.177072-4.243375z m-4.265476 24.50991h-28.068156a4.265476 4.265476 0 0 0-3.027825 1.237651 4.110769 4.110769 0 0 0-1.237651 3.027825l1.745972 217.495063c-5.149512-4.685393-12.354409-16.443078-12.1334-45.351069v-145.35769a4.287577 4.287577 0 0 0-8.553053 0v142.749783c-4.729595 2.364797-11.426171 4.420182-14.498197 2.806816-1.524963-0.839835-2.320596-3.005724-2.386899-6.05565l12.000795-166.397758a4.243375 4.243375 0 0 0-1.171348-3.138329 5.635732 5.635732 0 0 0-3.160431-1.348156l-33.50498 0.331514v-16.00106h93.973073z" fill="#000078" p-id="3689"></path></svg>