<?xml version="1.0" standalone="no"?><!DOCTYPE svg PUBLIC "-//W3C//DTD SVG 1.1//EN" "http://www.w3.org/Graphics/SVG/1.1/DTD/svg11.dtd"><svg t="1686414021797" class="icon" viewBox="0 0 1024 1024" version="1.1" xmlns="http://www.w3.org/2000/svg" p-id="5526" xmlns:xlink="http://www.w3.org/1999/xlink" width="200" height="200"><path d="M0 0h1024v1024H0z" fill="#D8D8D8" fill-opacity="0" p-id="5527"></path><path d="M571.392 129.706667c4.437333 0 10.24 2.048 17.749333 5.802666l43.008 27.989334 67.925334 32.426666c4.437333 2.048 8.192 5.802667 9.898666 10.581334l121.514667 291.84c3.754667 9.557333 0.341333 20.138667-8.533333 25.6l-96.597334 57.685333-94.208-260.096h-84.309333l-28.330667 18.432-5.12 7.850667-3.413333-2.389334-2.048 1.365334-2.730667-4.437334-31.744-20.821333h-83.968l-94.208 260.096-96.597333-57.685333c-8.874667-5.12-12.288-16.042667-8.533333-25.6l121.514666-291.84c2.048-4.778667 5.461333-8.533333 9.898667-10.581334l67.584-32.426666 43.690667-28.330667c1.365333-0.682667 2.048-1.365333 3.072-2.048 3.754667-2.389333 7.850667-3.413333 11.946666-3.413333h122.538667z" fill="#FAECE4" p-id="5528"></path><path d="M700.074667 195.925333c4.437333 2.048 8.192 5.802667 9.898666 10.581334l121.514667 291.84c3.754667 9.557333 0.341333 20.138667-8.533333 25.6l-96.597334 57.685333 57.344-61.098667c8.533333-5.12 12.288-15.36 8.874667-24.576l-0.341333-0.682666-121.514667-291.84c-1.706667-4.437333-5.12-7.850667-9.216-10.24l-0.682667-0.341334 39.253334 3.072z" fill="#FFDBBD" p-id="5529"></path><path d="M448.853333 129.706667h122.538667c12.288 0 22.528 9.898667 22.528 22.528 0 4.437333-1.365333 8.533333-3.413333 11.946666l-80.213334 124.928L430.08 164.181333c-6.826667-10.24-3.754667-24.234667 6.826667-31.061333 3.413333-2.048 7.850667-3.413333 11.946666-3.413333z" fill="#FAECE4" p-id="5530"></path><path d="M396.014933 171.881813l44.660054-28.996266 113.390933 174.626133-44.65664 28.99968z" fill="#FFCFD9" p-id="5531"></path><path d="M470.38464 318.89408l113.390933-174.626133 44.660054 28.996266-113.390934 174.629547z" fill="#FFCFD9" p-id="5532"></path><path d="M571.392 117.76h-122.538667c-6.485333 0-12.970667 2.048-18.432 5.461333l-1.024 0.682667c-0.682667 0.341333-1.365333 1.024-2.048 1.365333l-0.341333 0.341334-42.666667 27.648L317.44 185.344c-7.168 3.413333-12.970667 9.557333-16.042667 16.725333l-121.173333 291.84c-6.144 15.018667-0.341333 32.085333 13.312 40.277334l109.226667 64.853333 96.256-265.898667H471.04l26.965333 17.408 7.850667 12.288 5.461333-3.413333 7.168 4.437333 10.24-15.701333 23.210667-15.018667h72.362667l96.256 265.898667 109.226666-64.853333c13.994667-8.192 19.456-25.6 13.312-40.277334l-121.514666-291.84-0.341334-1.024c-3.072-6.826667-8.533333-12.288-15.36-15.701333L638.293333 153.258667l-43.008-27.989334-0.341333-0.341333c-9.216-4.778667-16.725333-7.168-23.552-7.168z m0 23.893333h0.341333c2.048 0 5.802667 1.365333 10.922667 4.096l0.682667 0.341334 43.349333 27.989333 68.608 32.768c1.706667 1.024 3.413333 2.389333 4.096 4.437333l121.514667 291.84 0.341333 0.682667c1.365333 3.754667-0.341333 7.850667-3.754667 9.898667l-84.309333 50.176-92.16-254.293334h-96.256l-33.450667 21.504-33.450666-21.504h-95.914667l-92.16 254.293334-83.968-50.176c-3.754667-2.048-5.12-6.826667-3.413333-10.581334l121.514666-291.84c0.682667-2.048 2.389333-3.413333 4.096-4.437333l68.266667-32.768 45.056-29.354667 0.682667-0.682666 1.024-1.024c1.706667-1.024 3.754667-1.706667 5.802666-1.706667h122.538667z" fill="#FB8C97" p-id="5533"></path><path d="M343.381333 363.861333L195.242667 836.608c43.008 34.474667 97.621333 39.936 157.013333 33.450667l27.989333-523.264-36.864 17.066666zM683.690667 363.861333l148.138666 472.746667c-43.008 34.474667-97.621333 39.936-157.013333 33.450667l-27.989333-523.264 36.864 17.066666z" fill="#FFCFD9" p-id="5534"></path><path d="M646.826667 346.794667l36.864 17.066666 148.138666 472.746667c-38.570667 31.061333-86.357333 38.229333-138.922666 35.157333 34.816-2.730667 67.242667-12.288 94.549333-33.792l1.706667-1.365333-139.946667-447.488-2.389333-42.325333z" fill="#FDBAC2" p-id="5535"></path><path d="M380.245333 350.208l109.909334 8.192-13.994667 519.509333c-50.517333 16.042667-97.962667 14.677333-142.677333 0l46.762666-527.701333zM646.826667 350.208h-116.736l18.773333 527.701333c50.517333 16.042667 97.962667 14.677333 142.677333 0l-44.714666-527.701333z" fill="#FAECE4" p-id="5536"></path><path d="M482.304 350.208H539.306667l37.546666 532.821333c-38.912 12.288-81.237333 14.336-128.682666 0l34.133333-532.821333z" fill="#FFCFD9" p-id="5537"></path><path d="M392.533333 338.261333l0.682667-10.581333-22.869333 10.581333h-14.677334l-0.341333 6.826667-21.845333 9.898667-152.234667 485.717333 8.192 6.485333 1.706667 1.365334c34.133333 25.941333 76.117333 36.864 128 35.84l12.970666 5.802666c38.229333 12.288 77.482667 14.677333 117.76 6.826667l2.389334-0.341333 2.048 0.682666c40.277333 10.581333 78.848 10.24 116.394666 0l1.706667-0.341333 2.389333 0.341333c40.96 7.850667 81.237333 5.12 120.149334-7.509333l9.898666-5.12c54.954667 1.706667 98.645333-9.898667 133.802667-38.229333l6.485333-5.12L693.589333 354.986667l-23.893333-11.264-0.341333-5.802667h-12.288l-22.869334-10.581333 0.682667 10.581333h-242.346667z m-39.594666 34.133334l22.528-10.24h276.138666l22.528 10.24 144.042667 459.776-1.024 0.682666c-32.085333 22.186667-72.362667 30.037333-124.586667 26.624l-13.653333 9.898667c-33.792 9.557333-67.925333 10.581333-103.424 3.072l-3.072-0.682667-3.072 0.682667c-36.522667 10.581333-73.386667 11.264-112.981333 0l-2.730667-0.682667-3.072 0.682667-2.389333 0.682667c-34.474667 7.168-67.925333 5.802667-101.034667-3.413334L331.093333 860.16c-49.834667 2.730667-89.088-5.12-120.149333-26.965333l-1.365333-1.024 143.36-459.776z" fill="#FB8C97" p-id="5538"></path><path d="M394.922667 350.890667l-25.6 393.557333h67.242666l1.024-393.557333z" fill="#C4EDFF" p-id="5539"></path><path d="M403.797333 711.68c1.365333 0.682667 0.341333 8.874667-3.072 17.749333S392.533333 744.789333 388.778667 742.741333c-3.754667-1.706667-1.706667-9.898667 3.072-17.749333s10.922667-13.653333 11.946666-13.312z m2.048 0c1.024-0.682667 6.826667 5.12 11.946667 13.312s6.826667 15.701333 3.072 17.749333c-3.754667 1.706667-8.874667-4.437333-11.946667-13.312s-4.096-17.066667-3.072-17.749333z m-21.504-2.730667c9.216-1.024 17.749333-0.341333 18.090667 1.024 0.341333 1.365333-6.485333 5.461333-15.701333 8.874667-9.216 3.072-17.066667 3.072-18.090667-1.024s6.485333-7.509333 15.701333-8.874667z m22.869334 1.024c0.341333-1.365333 8.533333-2.048 18.090666-1.024s16.725333 4.437333 15.701334 8.874667c-1.024 4.096-9.216 4.096-18.090667 1.024s-16.042667-7.509333-15.701333-8.874667zM375.808 686.421333c2.730667-3.413333 9.898667 0.341333 16.725333 7.168s11.264 13.653333 10.24 14.677334c-0.682667 1.024-8.533333-1.706667-16.725333-7.168S373.418667 689.493333 375.808 686.421333z m41.301333 6.826667c6.826667-6.826667 13.994667-10.24 16.725334-7.168 2.730667 3.413333-2.389333 9.557333-10.24 14.677333s-15.701333 8.192-16.725334 7.168c-0.682667-1.024 3.413333-7.850667 10.24-14.677333zM404.821333 672.426667c4.096 0 5.802667 7.850667 4.778667 17.408s-3.754667 17.408-4.778667 17.408-3.754667-7.850667-4.778666-17.408S400.725333 672.426667 404.821333 672.426667z" fill="#FFFFFF" p-id="5540"></path><path d="M405.162667 708.949333m-5.802667 0a5.802667 5.802667 0 1 0 11.605333 0 5.802667 5.802667 0 1 0-11.605333 0Z" fill="#FEB580" p-id="5541"></path><path d="M409.941333 637.610667c0.682667 0 0.341333 4.096-1.365333 8.874666s-4.096 7.509333-6.144 6.826667c-1.706667-1.365333-0.682667-5.12 1.706667-9.216s5.461333-6.826667 5.802666-6.485333z m1.365334 0c0.682667-0.341333 3.413333 2.730667 6.144 6.826666s3.413333 7.850667 1.706666 8.874667c-2.048 1.024-4.437333-2.389333-6.144-6.826667s-2.389333-8.874667-1.706666-8.874666z m-10.922667-1.365334c4.778667-0.682667 8.874667 0 8.874667 0.341334 0 0.682667-3.413333 2.730667-7.850667 4.437333-4.437333 1.365333-8.192 1.365333-8.874667-0.682667s3.413333-3.754667 7.850667-4.096z m11.605333 0.341334c0-0.682667 4.096-1.024 8.874667-0.341334 4.778667 0.682667 8.192 2.389333 7.850667 4.437334-0.341333 1.706667-4.437333 1.706667-8.874667 0.341333S411.648 637.269333 411.989333 636.586667zM396.288 624.64c1.365333-1.706667 5.12 0.341333 8.192 3.413333S409.941333 634.88 409.6 635.562667c-0.341333 0.682667-4.096-0.682667-8.192-3.413334S394.922667 626.346667 396.288 624.64z m20.48 3.754667c3.413333-3.413333 6.826667-5.12 8.192-3.413334 1.365333 1.365333-1.024 4.437333-5.12 7.168s-7.850667 4.096-8.192 3.413334c-0.341333-0.341333 1.706667-3.754667 5.12-7.168zM410.624 617.813333c2.048 0 3.072 4.096 2.389333 8.533334s-1.706667 8.874667-2.389333 8.874666-2.048-4.096-2.389333-8.874666 0.341333-8.533333 2.389333-8.533334z" fill="#FFFFFF" p-id="5542"></path><path d="M410.624 636.245333m-3.413333 0a3.413333 3.413333 0 1 0 6.826666 0 3.413333 3.413333 0 1 0-6.826666 0Z" fill="#FEB580" p-id="5543"></path><path d="M629.76 350.890667l25.6 393.557333h-67.242667l-1.024-393.557333z" fill="#C4EDFF" p-id="5544"></path><path d="M611.328 637.610667c0.682667 0 0.341333 4.096-1.365333 8.874666s-4.096 7.509333-6.144 6.826667c-1.706667-1.365333-0.682667-5.12 1.706666-9.216s5.461333-6.826667 5.802667-6.485333z m1.365333 0c0.682667-0.341333 3.413333 2.730667 6.144 6.826666s3.413333 7.850667 1.706667 8.874667c-2.048 1.024-4.437333-2.389333-6.144-6.826667s-2.389333-8.874667-1.706667-8.874666z m-10.922666-1.365334c4.778667-0.682667 8.874667 0 8.874666 0.341334 0 0.682667-3.413333 2.730667-7.850666 4.437333-4.437333 1.365333-8.192 1.365333-8.874667-0.682667s3.413333-3.754667 7.850667-4.096z m11.605333 0.341334c0-0.682667 4.096-1.024 8.874667-0.341334 4.778667 0.682667 8.192 2.389333 7.850666 4.437334-0.341333 1.706667-4.437333 1.706667-8.874666 0.341333S613.034667 637.269333 613.376 636.586667zM597.674667 624.64c1.365333-1.706667 5.12 0.341333 8.192 3.413333S611.328 634.88 610.986667 635.562667c-0.341333 0.682667-4.096-0.682667-8.192-3.413334S596.309333 626.346667 597.674667 624.64z m20.48 3.754667c3.413333-3.413333 6.826667-5.12 8.192-3.413334 1.365333 1.365333-1.024 4.437333-5.12 7.168s-7.850667 4.096-8.192 3.413334c-0.341333-0.341333 1.706667-3.754667 5.12-7.168zM612.010667 617.813333c2.048 0 3.072 4.096 2.389333 8.533334s-1.706667 8.874667-2.389333 8.874666-2.048-4.096-2.389334-8.874666 0.341333-8.533333 2.389334-8.533334z" fill="#FFFFFF" p-id="5545"></path><path d="M612.010667 636.245333m-3.413334 0a3.413333 3.413333 0 1 0 6.826667 0 3.413333 3.413333 0 1 0-6.826667 0Z" fill="#FEB580" p-id="5546"></path><path d="M618.837333 711.68c1.365333 0.682667 0.341333 8.874667-3.072 17.749333S607.573333 744.789333 603.818667 742.741333c-3.754667-1.706667-1.706667-9.898667 3.072-17.749333s10.922667-13.653333 11.946666-13.312z m2.048 0c1.024-0.682667 6.826667 5.12 11.946667 13.312s6.826667 15.701333 3.072 17.749333c-3.754667 1.706667-8.874667-4.437333-11.946667-13.312s-4.096-17.066667-3.072-17.749333z m-21.504-2.730667c9.216-1.024 17.749333-0.341333 18.090667 1.024 0.341333 1.365333-6.485333 5.461333-15.701333 8.874667-9.216 3.072-17.066667 3.072-18.090667-1.024s6.485333-7.509333 15.701333-8.874667z m22.869334 1.024c0.341333-1.365333 8.533333-2.048 18.090666-1.024s16.725333 4.437333 15.701334 8.874667c-1.024 4.096-9.216 4.096-18.090667 1.024s-16.042667-7.509333-15.701333-8.874667zM590.848 686.421333c2.730667-3.413333 9.898667 0.341333 16.725333 7.168s11.264 13.653333 10.24 14.677334c-0.682667 1.024-8.533333-1.706667-16.725333-7.168S588.458667 689.493333 590.848 686.421333z m41.301333 6.826667c6.826667-6.826667 13.994667-10.24 16.725334-7.168 2.730667 3.413333-2.389333 9.557333-10.24 14.677333s-15.701333 8.192-16.725334 7.168c-0.682667-1.024 3.413333-7.850667 10.24-14.677333zM619.861333 672.426667c4.096 0 5.802667 7.850667 4.778667 17.408s-3.754667 17.408-4.778667 17.408-3.754667-7.850667-4.778666-17.408S615.765333 672.426667 619.861333 672.426667z" fill="#FFFFFF" p-id="5547"></path><path d="M620.202667 708.949333m-5.802667 0a5.802667 5.802667 0 1 0 11.605333 0 5.802667 5.802667 0 1 0-11.605333 0Z" fill="#FEB580" p-id="5548"></path><path d="M349.184 298.666667c3.413333-0.341333 6.144-0.682667 8.192-1.024 106.496-11.605333 211.968-11.264 316.074667 0.682666 0.682667 0 1.024 0 1.706666 0.341334 7.168 1.024 12.629333 7.509333 11.946667 14.677333-0.341333 3.413333-0.682667 6.485333-0.682667 8.874667-0.341333 5.12-1.024 11.605333-1.706666 19.797333-0.341333 2.048-0.341333 5.12-0.682667 8.874667-0.682667 7.509333-7.168 12.970667-14.677333 12.288h-0.341334c-4.437333-0.682667-7.850667-1.024-10.922666-1.365334-99.669333-10.922667-199.68-10.24-299.690667 1.024-1.024 0-2.048 0.341333-3.413333 0.341334-7.168 1.024-13.994667-4.437333-14.677334-11.605334v-0.341333c-1.024-11.605333-1.706667-20.821333-2.389333-27.648 0-2.730667-0.341333-6.144-0.682667-10.24-0.682667-7.168 4.778667-13.653333 11.946667-14.677333z" fill="#C4EDFF" p-id="5549"></path><path d="M356.352 285.696l-8.533333 1.024c-13.653333 1.706667-23.893333 13.994667-22.528 27.648l3.413333 37.888v0.341333c1.706667 13.994667 14.336 23.893333 27.989333 22.186667l3.413334-0.341333c97.621333-10.922667 194.218667-11.605333 290.816-1.706667l7.168 0.682667 10.581333 1.365333c13.994667 1.365333 26.624-9.216 27.648-23.210667l3.072-37.205333c1.365333-13.653333-8.874667-25.941333-22.528-27.648l-1.706667-0.341333c-104.789333-11.946667-210.944-12.288-318.805333-0.682667z m317.781333 24.917333c1.024 0 1.706667 1.024 1.365334 1.706667l-3.072 37.205333c0 1.024-1.024 1.706667-1.706667 1.706667l-5.461333-0.682667-5.461334-0.682666c-97.962667-10.581333-196.608-10.581333-295.936 0.341333l-9.898666 1.024c-0.682667 0-1.365333-0.341333-1.365334-1.365333l-3.413333-37.546667c0-1.024 0.682667-1.706667 1.365333-1.706667l8.192-1.024c103.765333-11.264 206.165333-11.264 307.2 0l8.192 1.024z" fill="#FB8C97" p-id="5550"></path><path d="M474.112 380.245333c14.336-13.653333 16.042667-32.426667 16.042667-32.768s-11.946667 7.509333-26.282667 21.162667-22.869333 28.672-20.138667 31.402667 16.042667-5.802667 30.378667-19.797334zM554.666667 380.245333c-14.336-13.653333-16.042667-32.426667-16.042667-32.768 0-0.341333 11.946667 7.509333 26.282667 21.162667s22.869333 28.672 20.138666 31.402667c-2.389333 3.072-16.042667-5.802667-30.378666-19.797334z" fill="#76DCF4" p-id="5551"></path><path d="M490.154667 292.181333c-18.773333-17.749333-40.96-16.384-62.464-17.066666-33.792 47.104-17.408 86.698667 14.336 123.904 9.898667-18.090667 19.114667-36.181333 47.786666-48.128V292.181333z" fill="#C4ECF9" p-id="5552"></path><path d="M427.008 273.408l-0.341333 0.682667c-28.330667 39.253333-24.576 75.093333 6.144 115.029333l2.048 2.730667 3.072 4.096 2.048 2.730666 2.389333 2.730667 4.437333-7.850667 1.024-2.048c11.264-19.456 21.504-30.378667 41.301334-38.912l2.389333-1.024V291.498667l-0.341333-0.341334c-11.946667-11.264-24.576-15.701333-44.032-16.725333h-7.850667l-12.288-1.024z m1.024 3.754667l0.341333-0.682667H440.661333c3.072 0 6.144 0.341333 9.216 0.682667l2.730667 0.341333c15.36 1.706667 25.6 5.802667 35.498667 14.677333l0.341333 0.341334v57.344l1.024-0.341334c-21.162667 8.874667-32.426667 20.138667-44.032 40.618667l-2.730667 4.778667-0.682666 1.365333-1.024-1.024c-0.682667-1.024-1.365333-1.706667-2.048-2.730667l-2.048-2.730666-2.048-2.389334c-0.341333-0.341333-0.682667-0.682667-1.024-1.365333l-1.706667-2.389333-1.706667-2.389334-1.706666-2.389333-1.706667-2.389333-1.706667-2.389334c-1.365333-2.048-2.389333-4.096-3.754666-6.144l-1.365334-2.389333c-15.36-30.378667-13.653333-58.368 7.850667-88.405333z" fill="#76DCF4" p-id="5553"></path><path d="M537.6 292.181333c18.773333-17.749333 40.96-16.384 62.464-17.066666 33.792 47.104 17.408 86.698667-14.336 123.904-9.898667-18.090667-19.114667-36.181333-47.786667-48.128V292.181333z" fill="#C4ECF9" p-id="5554"></path><path d="M600.746667 273.408l0.341333 0.682667c28.330667 39.253333 24.576 75.093333-6.144 115.029333l-2.048 2.730667-3.072 4.096-2.048 2.730666-2.389333 2.730667-4.437334-7.850667-1.024-2.048c-11.264-19.456-21.504-30.378667-41.301333-38.912l-2.389333-1.024V291.498667l0.341333-0.341334c11.946667-11.264 24.576-15.701333 44.032-16.725333h7.850667l12.288-1.024z m-1.024 3.754667l-0.341334-0.682667H587.093333c-3.072 0-6.144 0.341333-9.216 0.682667l-2.730666 0.341333c-15.36 1.706667-25.6 5.802667-35.498667 14.677333l-0.341333 0.341334v57.344l-1.024-0.341334c21.162667 8.874667 32.426667 20.138667 44.032 40.618667l2.730666 4.778667 0.682667 1.365333 1.024-1.024c0.682667-1.024 1.365333-1.706667 2.048-2.730667l2.048-2.730666 2.048-2.389334c0.341333-0.341333 0.682667-0.682667 1.024-1.365333l1.706667-2.389333 1.706666-2.389334 1.706667-2.389333 1.706667-2.389333 1.706666-2.389334c1.365333-2.048 2.389333-4.096 3.754667-6.144l1.365333-2.389333c15.018667-30.378667 13.312-58.368-7.850666-88.405333zM501.76 319.829333c-15.018667-10.922667-43.349333-28.672-52.565333-1.706666s12.629333 24.917333 24.917333 12.288 17.749333-10.581333 27.648-10.581334z" fill="#76DCF4" p-id="5555"></path><path d="M522.24 319.829333c15.018667-10.922667 43.349333-28.672 52.565333-1.706666s-12.629333 24.917333-24.917333 12.288-17.749333-10.581333-27.648-10.581334z" fill="#76DCF4" p-id="5556"></path><path d="M500.394667 292.181333h26.965333c5.802667 0 10.24 4.437333 10.24 10.24v38.229334c0 5.802667-4.437333 10.24-10.24 10.24h-26.965333c-5.802667 0-10.24-4.437333-10.24-10.24V302.421333c0-5.802667 4.437333-10.24 10.24-10.24z" fill="#C4ECF9" p-id="5557"></path><path d="M527.36 290.816h-26.965333c-6.485333 0-11.605333 5.12-11.605334 11.605333v38.229334c0 6.485333 5.12 11.605333 11.605334 11.605333h26.965333c6.485333 0 11.605333-5.12 11.605333-11.605333V302.421333c0-6.485333-5.12-11.605333-11.605333-11.605333z m-26.965333 2.730667h26.965333c4.778667 0 8.874667 4.096 8.874667 8.874666v38.229334c0 4.778667-4.096 8.874667-8.874667 8.874666h-26.965333c-4.778667 0-8.874667-4.096-8.874667-8.874666V302.421333c0-5.12 3.754667-8.874667 8.874667-8.874666z" fill="#76DCF4" p-id="5558"></path><path d="M339.968 467.626667c-67.925333 216.064-115.370667 338.261333-110.250667 353.28 3.413333 9.898667 22.869333 16.725333 58.709334 20.138666-35.157333-7.850667-49.834667-23.552-43.690667-47.104 9.216-35.157333 43.008-136.874667 95.232-326.314666z" fill="#FFFFFF" p-id="5559"></path></svg>