<?xml version="1.0" encoding="utf-8"?>
<svg version="1.1" xmlns:xlink="http://www.w3.org/1999/xlink" width="22px" height="25px" xmlns="http://www.w3.org/2000/svg">
  <g transform="matrix(1 0 0 1 -295 -129 )">
    <path d="M 17.3461538461538 13.1277901785714  C 17.3461538461538 13.2486979166667  17.3064903846154 13.3556547619048  17.2271634615385 13.4486607142857  L 10.4579326923077 20.5915178571429  C 10.3697916666667 20.6752232142857  10.2684294871795 20.7170758928571  10.1538461538462 20.7170758928571  C 10.0392628205128 20.7170758928571  9.93790064102564 20.6752232142857  9.84975961538462 20.5915178571429  L 6.04206730769231 16.5736607142857  C 5.96274038461539 16.4806547619048  5.92307692307692 16.3736979166667  5.92307692307692 16.2527901785714  C 5.92307692307692 16.1318824404762  5.96274038461539 16.0295758928571  6.04206730769231 15.9458705357143  L 6.65024038461539 15.3041294642857  C 6.72956730769231 15.2204241071429  6.82652243589744 15.1785714285714  6.94110576923077 15.1785714285714  C 7.0556891025641 15.1785714285714  7.15705128205128 15.2204241071429  7.24519230769231 15.3041294642857  L 10.1538461538462 18.3733258928571  L 16.0240384615385 12.1791294642857  C 16.1121794871795 12.0954241071429  16.2135416666667 12.0535714285714  16.328125 12.0535714285714  C 16.4427083333333 12.0535714285714  16.5396634615385 12.0954241071429  16.6189903846154 12.1791294642857  L 17.2271634615385 12.8208705357143  C 17.3064903846154 12.9045758928571  17.3461538461538 13.0068824404762  17.3461538461538 13.1277901785714  Z M 2 9  L 2 23  L 20 23  L 20 9  L 2 9  Z M 6.65024038461539 6.57087053571428  C 6.72956730769231 6.48716517857143  6.76923076923077 6.38020833333333  6.76923076923077 6.25  L 6.76923076923077 2.23214285714286  C 6.76923076923077 2.10193452380952  6.72956730769231 1.99497767857143  6.65024038461539 1.91127232142857  C 6.57091346153846 1.82756696428572  6.46955128205128 1.78571428571428  6.34615384615385 1.78571428571428  L 5.5 1.78571428571428  C 5.37660256410256 1.78571428571428  5.27524038461539 1.82756696428572  5.19591346153846 1.91127232142857  C 5.11658653846154 1.99497767857143  5.07692307692308 2.10193452380952  5.07692307692308 2.23214285714286  L 5.07692307692308 6.25  C 5.07692307692308 6.38020833333333  5.11658653846154 6.48716517857143  5.19591346153846 6.57087053571428  C 5.27524038461539 6.65457589285714  5.37660256410256 6.69642857142857  5.5 6.69642857142857  L 6.34615384615385 6.69642857142857  C 6.46955128205128 6.69642857142857  6.57091346153846 6.65457589285714  6.65024038461539 6.57087053571428  Z M 16.8040865384615 6.57087053571428  C 16.8834134615385 6.48716517857143  16.9230769230769 6.38020833333333  16.9230769230769 6.25  L 16.9230769230769 2.23214285714286  C 16.9230769230769 2.10193452380952  16.8834134615385 1.99497767857143  16.8040865384615 1.91127232142857  C 16.7247596153846 1.82756696428572  16.6233974358974 1.78571428571428  16.5 1.78571428571428  L 15.6538461538462 1.78571428571428  C 15.5304487179487 1.78571428571428  15.4290865384615 1.82756696428572  15.3497596153846 1.91127232142857  C 15.2704326923077 1.99497767857143  15.2307692307692 2.10193452380952  15.2307692307692 2.23214285714286  L 15.2307692307692 6.25  C 15.2307692307692 6.38020833333333  15.2704326923077 6.48716517857143  15.3497596153846 6.57087053571428  C 15.4290865384615 6.65457589285714  15.5304487179487 6.69642857142857  15.6538461538462 6.69642857142857  L 16.5 6.69642857142857  C 16.6233974358974 6.69642857142857  16.7247596153846 6.65457589285714  16.8040865384615 6.57087053571428  Z M 21.4975961538462 4.1015625  C 21.8325320512821 4.45498511904762  22 4.8735119047619  22 5.35714285714286  L 22 23.2142857142857  C 22 23.6979166666667  21.8325320512821 24.116443452381  21.4975961538462 24.4698660714286  C 21.1626602564103 24.8232886904762  20.7660256410256 25  20.3076923076923 25  L 1.69230769230769 25  C 1.23397435897436 25  0.837339743589744 24.8232886904762  0.502403846153846 24.4698660714286  C 0.167467948717949 24.116443452381  0 23.6979166666667  0 23.2142857142857  L 0 5.35714285714286  C 0 4.8735119047619  0.167467948717949 4.45498511904762  0.502403846153846 4.1015625  C 0.837339743589744 3.74813988095238  1.23397435897436 3.57142857142857  1.69230769230769 3.57142857142857  L 3.38461538461539 3.57142857142857  L 3.38461538461539 2.23214285714286  C 3.38461538461539 1.61830357142857  3.59174679487179 1.09281994047619  4.00600961538462 0.655691964285715  C 4.42027243589744 0.218563988095238  4.91826923076923 0  5.5 0  L 6.34615384615385 0  C 6.92788461538462 0  7.42588141025641 0.218563988095238  7.84014423076923 0.655691964285715  C 8.25440705128205 1.09281994047619  8.46153846153846 1.61830357142857  8.46153846153846 2.23214285714286  L 8.46153846153846 3.57142857142857  L 13.5384615384615 3.57142857142857  L 13.5384615384615 2.23214285714286  C 13.5384615384615 1.61830357142857  13.7455929487179 1.09281994047619  14.1598557692308 0.655691964285715  C 14.5741185897436 0.218563988095238  15.0721153846154 0  15.6538461538462 0  L 16.5 0  C 17.0817307692308 0  17.5797275641026 0.218563988095238  17.9939903846154 0.655691964285715  C 18.4082532051282 1.09281994047619  18.6153846153846 1.61830357142857  18.6153846153846 2.23214285714286  L 18.6153846153846 3.57142857142857  L 20.3076923076923 3.57142857142857  C 20.7660256410256 3.57142857142857  21.1626602564103 3.74813988095238  21.4975961538462 4.1015625  Z " fill-rule="nonzero" fill="#000000" stroke="none" transform="matrix(1 0 0 1 295 129 )" />
  </g>
</svg>