<?xml version="1.0" encoding="utf-8"?>
<svg version="1.1" xmlns:xlink="http://www.w3.org/1999/xlink" width="12px" height="10px" xmlns="http://www.w3.org/2000/svg">
  <g transform="matrix(1 0 0 1 -431 -424 )">
    <path d="M 9.88392857142857 5.36458333333333  C 10.7232142857143 4.54861111111111  11.1428571428571 3.77604166666667  11.1428571428571 3.046875  C 11.1428571428571 2.6953125  11.0948660714286 2.38498263888889  10.9988839285714 2.11588541666667  C 10.9029017857143 1.84678819444444  10.7801339285714 1.63302951388889  10.6305803571429 1.474609375  C 10.4810267857143 1.31618923611111  10.2991071428571 1.18706597222222  10.0848214285714 1.08723958333333  C 9.87053571428572 0.987413194444443  9.66071428571429 0.920138888888888  9.45535714285714 0.885416666666666  C 9.25 0.850694444444443  9.03125 0.833333333333334  8.79910714285714 0.833333333333334  C 8.56696428571429 0.833333333333334  8.31696428571428 0.888671875  8.04910714285714 0.999348958333334  C 7.78125 1.11002604166667  7.53459821428571 1.24891493055555  7.30915178571428 1.416015625  C 7.08370535714286 1.58311631944444  6.890625 1.73936631944444  6.72991071428572 1.884765625  C 6.56919642857143 2.03016493055555  6.43526785714286 2.16362847222222  6.328125 2.28515625  C 6.24776785714286 2.38064236111111  6.13839285714286 2.42838541666667  6 2.42838541666667  C 5.86160714285714 2.42838541666667  5.75223214285714 2.38064236111111  5.671875 2.28515625  C 5.56473214285714 2.16362847222222  5.43080357142857 2.03016493055555  5.27008928571429 1.884765625  C 5.109375 1.73936631944444  4.91629464285714 1.58311631944444  4.69084821428571 1.416015625  C 4.46540178571429 1.24891493055555  4.21875 1.11002604166667  3.95089285714286 0.999348958333334  C 3.68303571428571 0.888671875  3.43303571428572 0.833333333333334  3.20089285714286 0.833333333333334  C 2.96875 0.833333333333334  2.75 0.850694444444443  2.54464285714286 0.885416666666666  C 2.33928571428571 0.920138888888888  2.12946428571429 0.987413194444443  1.91517857142857 1.08723958333333  C 1.70089285714286 1.18706597222222  1.51897321428571 1.31618923611111  1.36941964285714 1.474609375  C 1.21986607142857 1.63302951388889  1.09709821428571 1.84678819444444  1.00111607142857 2.11588541666667  C 0.905133928571429 2.38498263888889  0.857142857142857 2.6953125  0.857142857142857 3.046875  C 0.857142857142857 3.77604166666667  1.27455357142857 4.54644097222222  2.109375 5.35807291666667  L 6 9.00390625  L 9.88392857142857 5.36458333333333  Z M 11.1495535714286 0.807291666666666  C 11.7165178571429 1.34548611111111  12 2.09201388888889  12 3.046875  C 12 4.00607638888889  11.4888392857143 4.98263888888889  10.4665178571429 5.9765625  L 6.29464285714286 9.8828125  C 6.21428571428572 9.9609375  6.11607142857143 10  6 10  C 5.88392857142857 10  5.78571428571429 9.9609375  5.70535714285714 9.8828125  L 1.52678571428571 5.96354166666667  C 1.48214285714286 5.92881944444444  1.42075892857143 5.87239583333333  1.34263392857143 5.79427083333333  C 1.26450892857143 5.71614583333333  1.140625 5.57400173611111  0.970982142857143 5.36783854166667  C 0.801339285714286 5.16167534722222  0.649553571428571 4.95008680555555  0.515625 4.73307291666667  C 0.381696428571429 4.51605902777778  0.262276785714286 4.25347222222222  0.157366071428571 3.9453125  C 0.0524553571428571 3.63715277777778  0 3.33767361111111  0 3.046875  C 0 2.09201388888889  0.283482142857143 1.34548611111111  0.850446428571429 0.807291666666666  C 1.41741071428571 0.269097222222222  2.20089285714286 0  3.20089285714286 0  C 3.47767857142857 0  3.76004464285714 0.0466579861111105  4.04799107142857 0.139973958333334  C 4.3359375 0.233289930555555  4.60379464285714 0.35915798611111  4.8515625 0.517578125  C 5.09933035714286 0.675998263888888  5.3125 0.824652777777777  5.49107142857143 0.963541666666666  C 5.66964285714286 1.10243055555555  5.83928571428571 1.25  6 1.40625  C 6.16071428571428 1.25  6.33035714285714 1.10243055555555  6.50892857142857 0.963541666666666  C 6.6875 0.824652777777777  6.90066964285714 0.675998263888888  7.1484375 0.517578125  C 7.39620535714286 0.35915798611111  7.6640625 0.233289930555555  7.95200892857143 0.139973958333334  C 8.23995535714286 0.0466579861111105  8.52232142857143 0  8.79910714285714 0  C 9.79910714285714 0  10.5825892857143 0.269097222222222  11.1495535714286 0.807291666666666  Z " fill-rule="nonzero" fill="#404040" stroke="none" fill-opacity="0.494117647058824" transform="matrix(1 0 0 1 431 424 )" />
  </g>
</svg>