<?xml version="1.0" encoding="utf-8"?>
<svg version="1.1" xmlns:xlink="http://www.w3.org/1999/xlink" width="14px" height="14px" xmlns="http://www.w3.org/2000/svg">
  <g transform="matrix(1 0 0 1 -659 -305 )">
    <path d="M 10.5 6.49869791666667  C 10.6944444444444 6.60807291666667  10.7916666666667 6.77517361111111  10.7916666666667 7  C 10.7916666666667 7.22482638888889  10.6944444444444 7.39192708333333  10.5 7.50130208333333  L 5.54166666666667 10.41796875  C 5.45052083333333 10.47265625  5.35329861111111 10.5  5.25 10.5  C 5.15277777777778 10.5  5.05555555555556 10.4756944444444  4.95833333333333 10.4270833333333  C 4.76388888888889 10.3116319444444  4.66666666666667 10.1414930555556  4.66666666666667 9.91666666666667  L 4.66666666666667 4.08333333333333  C 4.66666666666667 3.85850694444444  4.76388888888889 3.68836805555555  4.95833333333333 3.57291666666667  C 5.15885416666667 3.46354166666667  5.35329861111111 3.46657986111111  5.54166666666667 3.58203125  L 10.5 6.49869791666667  Z M 11.29296875 9.48828125  C 11.7365451388889 8.72873263888889  11.9583333333333 7.89930555555556  11.9583333333333 7  C 11.9583333333333 6.10069444444444  11.7365451388889 5.27126736111111  11.29296875 4.51171875  C 10.8493923611111 3.75217013888889  10.2478298611111 3.15060763888889  9.48828125 2.70703125  C 8.72873263888889 2.26345486111111  7.89930555555556 2.04166666666667  7 2.04166666666667  C 6.10069444444444 2.04166666666667  5.27126736111111 2.26345486111111  4.51171875 2.70703125  C 3.75217013888889 3.15060763888889  3.15060763888889 3.75217013888889  2.70703125 4.51171875  C 2.26345486111111 5.27126736111111  2.04166666666667 6.10069444444444  2.04166666666667 7  C 2.04166666666667 7.89930555555556  2.26345486111111 8.72873263888889  2.70703125 9.48828125  C 3.15060763888889 10.2478298611111  3.75217013888889 10.8493923611111  4.51171875 11.29296875  C 5.27126736111111 11.7365451388889  6.10069444444444 11.9583333333333  7 11.9583333333333  C 7.89930555555556 11.9583333333333  8.72873263888889 11.7365451388889  9.48828125 11.29296875  C 10.2478298611111 10.8493923611111  10.8493923611111 10.2478298611111  11.29296875 9.48828125  Z M 13.0611979166667 3.486328125  C 13.6870659722222 4.55881076388889  14 5.73003472222222  14 7  C 14 8.26996527777778  13.6870659722222 9.44118923611111  13.0611979166667 10.513671875  C 12.4353298611111 11.5861545138889  11.5861545138889 12.4353298611111  10.513671875 13.0611979166667  C 9.44118923611111 13.6870659722222  8.26996527777778 14  7 14  C 5.73003472222222 14  4.55881076388889 13.6870659722222  3.486328125 13.0611979166667  C 2.41384548611111 12.4353298611111  1.56467013888889 11.5861545138889  0.938802083333333 10.513671875  C 0.312934027777778 9.44118923611111  0 8.26996527777778  0 7  C 0 5.73003472222222  0.312934027777778 4.55881076388889  0.938802083333333 3.486328125  C 1.56467013888889 2.41384548611111  2.41384548611111 1.56467013888889  3.486328125 0.938802083333333  C 4.55881076388889 0.312934027777777  5.73003472222222 0  7 0  C 8.26996527777778 0  9.44118923611111 0.312934027777777  10.513671875 0.938802083333333  C 11.5861545138889 1.56467013888889  12.4353298611111 2.41384548611111  13.0611979166667 3.486328125  Z " fill-rule="nonzero" fill="#f6eded" stroke="none" fill-opacity="0.701960784313725" transform="matrix(1 0 0 1 659 305 )" />
  </g>
</svg>