<?xml version="1.0" standalone="no"?><!DOCTYPE svg PUBLIC "-//W3C//DTD SVG 1.1//EN" "http://www.w3.org/Graphics/SVG/1.1/DTD/svg11.dtd"><svg t="1686409292743" class="icon" viewBox="0 0 1024 1024" version="1.1" xmlns="http://www.w3.org/2000/svg" p-id="4004" xmlns:xlink="http://www.w3.org/1999/xlink" width="200" height="200"><path d="M492.373333 148.48a29.866667 29.866667 0 0 1 40.576 0l351.573334 325.888a21.333333 21.333333 0 0 1-14.506667 36.992h-101.717333V810.666667a42.666667 42.666667 0 0 1-42.666667 42.666666h-426.666667a42.666667 42.666667 0 0 1-42.666666-42.666666v-299.306667H155.264a21.333333 21.333333 0 0 1-14.506667-36.992zM451.754667 469.333333h-30.677334a8.533333 8.533333 0 0 0-7.125333 13.226667l63.36 97.152h-48.426667a8.533333 8.533333 0 0 0-8.533333 8.533333v17.152c0 4.693333 3.84 8.533333 8.533333 8.533334h61.354667l0.341333 0.384v27.52h-61.696a8.533333 8.533333 0 0 0-8.533333 8.533333v17.536c0 4.693333 3.84 8.533333 8.533333 8.533333h61.696v35.84c0 4.736 3.84 8.533333 8.533334 8.533334h25.770666a8.533333 8.533333 0 0 0 8.533334-8.533334v-35.84h62.72a8.533333 8.533333 0 0 0 8.533333-8.533333v-17.493333a8.533333 8.533333 0 0 0-8.533333-8.533334h-62.72v-27.562666l62.72-0.341334a8.533333 8.533333 0 0 0 8.533333-8.533333v-17.194667a8.533333 8.533333 0 0 0-8.533333-8.533333h-49.450667l63.36-97.194667a8.533333 8.533333 0 0 0-7.125333-13.184h-30.677334a4.266667 4.266667 0 0 0-3.541333 1.92L512 558.08l-56.704-86.826667a4.266667 4.266667 0 0 0-3.541333-1.92z" fill="#000000" p-id="4005"></path></svg>