<?xml version="1.0" standalone="no"?><!DOCTYPE svg PUBLIC "-//W3C//DTD SVG 1.1//EN" "http://www.w3.org/Graphics/SVG/1.1/DTD/svg11.dtd"><svg t="1686418446008" class="icon" viewBox="0 0 1024 1024" version="1.1" xmlns="http://www.w3.org/2000/svg" p-id="17109" xmlns:xlink="http://www.w3.org/1999/xlink" width="200" height="200"><path d="M507.8 494.1l-3.8-2c-92.3-49-147.4-131-147.4-219.3S411.7 102.5 504 53.5l3.8-2 3.8 2c92.3 49 147.4 131 147.4 219.3s-55.1 170.3-147.4 219.3l-3.8 2z m0-424.5c-84.7 46.4-135.1 122-135.1 203.2S423.1 429.6 507.8 476c84.7-46.4 135.1-122 135.1-203.2S592.4 116 507.8 69.6z" fill="#231815" p-id="17110"></path><path d="M325.5 573.6c-22.5 0-44.7-3.4-66.3-10.4-84-27.3-145-105-163-207.9l-0.7-4.2 3.1-3c75.1-72.6 170.1-99.7 254.1-72.4 84 27.3 145 105 163 207.9l0.7 4.2-3.1 3c-55.8 54-122.7 82.8-187.8 82.8zM112.7 356.7C130.6 451.5 187 522.9 264.1 548c19.9 6.5 40.5 9.6 61.3 9.6 59.9 0 121.5-26.2 173.7-75.3C481.2 387.4 424.8 316 347.6 291c-77.1-25.1-164.7-0.5-234.9 65.7z" fill="#231815" p-id="17111"></path><path d="M303.8 839.7c-15.2 0-30.8-1.1-46.6-3.3l-4.2-0.6-2-3.8c-45.9-93.9-42.2-192.6 9.7-264 51.9-71.5 144.7-105.4 248.1-90.8l4.2 0.6 1.9 3.8c45.9 93.9 42.2 192.6-9.7 264-43.9 60.5-117.2 94.1-201.4 94.1z m-40.2-18.6c95.8 12.3 181-19.3 228.7-85 47.7-65.6 51.4-156.5 10.1-243.8-95.8-12.3-181 19.3-228.7 85-47.7 65.7-51.4 156.6-10.1 243.8z" fill="#231815" p-id="17112"></path><path d="M711.7 839.7c-84.2 0-157.5-33.6-201.5-94.2-51.9-71.5-55.6-170.2-9.7-264l1.9-3.8 4.2-0.6c103.4-14.6 196.2 19.3 248.1 90.8 51.9 71.5 55.6 170.2 9.7 264l-1.9 3.8-4.2 0.6c-15.7 2.3-31.3 3.4-46.6 3.4zM513.1 492.4c-41.3 87.3-37.6 178.1 10.1 243.8 47.7 65.6 133 97.2 228.7 85 41.3-87.3 37.6-178.1-10.1-243.8-47.7-65.7-132.9-97.3-228.7-85z" fill="#231815" p-id="17113"></path><path d="M690 573.6c-65.2 0-132-28.8-187.8-82.8l-3.1-3 0.7-4.2c18.1-102.9 79-180.6 163-207.9 84-27.3 179-0.2 254.1 72.4l3.1 3-0.7 4.2c-18.1 102.9-79 180.6-163 207.9-21.5 7-43.8 10.4-66.3 10.4z m-173.6-91.4c70.3 66.2 157.8 90.8 235 65.7 77.2-25.1 133.6-96.4 151.5-191.3-70.3-66.2-157.8-90.8-235-65.7-77.2 25.1-133.6 96.5-151.5 191.3zM508.1 393.2v93.5" fill="#231815" p-id="17114"></path><path d="M500.1 393.2h16v93.4h-16z" fill="#231815" p-id="17115"></path><path d="M508 391.1m-8.2 0a8.2 8.2 0 1 0 16.4 0 8.2 8.2 0 1 0-16.4 0Z" fill="#231815" p-id="17116"></path><path d="M508 407.3c-8.9 0-16.2-7.3-16.2-16.2s7.3-16.2 16.2-16.2 16.2 7.3 16.2 16.2-7.2 16.2-16.2 16.2z m0-16.4c-0.1 0-0.2 0.1-0.2 0.2 0 0.2 0.4 0.2 0.4 0 0-0.1-0.1-0.2-0.2-0.2zM461.4 405.8l46.7 80.9M468.332 401.716l46.7 80.884-13.856 8-46.7-80.885z" fill="#231815" p-id="17117"></path><path d="M460.2 403.9m-8.2 0a8.2 8.2 0 1 0 16.4 0 8.2 8.2 0 1 0-16.4 0Z" fill="#231815" p-id="17118"></path><path d="M460.2 420.2c-5.6 0-11.1-2.9-14.1-8.1-2.2-3.8-2.7-8.1-1.6-12.3 1.1-4.2 3.8-7.7 7.6-9.8 7.7-4.5 17.7-1.8 22.2 5.9s1.8 17.7-5.9 22.2c-2.6 1.4-5.4 2.1-8.2 2.1z m0-16.5h-0.1s-0.1 0-0.1 0.1v0.2c0.1 0.1 0.2 0.1 0.3 0.1 0.1-0.1 0.1-0.2 0.1-0.3 0 0-0.1-0.1-0.2-0.1zM427.2 440l80.9 46.7M431.163 432.99l80.884 46.7-8 13.856-80.884-46.7z" fill="#231815" p-id="17119"></path><path d="M425.3 439m-8.2 0a8.2 8.2 0 1 0 16.4 0 8.2 8.2 0 1 0-16.4 0Z" fill="#231815" p-id="17120"></path><path d="M425.2 455.2c-2.8 0-5.5-0.7-8.1-2.2-7.7-4.5-10.4-14.4-5.9-22.2 2.2-3.8 5.7-6.4 9.8-7.6 4.2-1.1 8.6-0.5 12.3 1.6 7.7 4.5 10.4 14.4 5.9 22.2-2.9 5.3-8.4 8.2-14 8.2z m0.1-16.5s-0.1 0 0 0c-0.2 0-0.2 0.1-0.2 0.1-0.1 0.1 0 0.2 0.1 0.3 0.1 0.1 0.2 0 0.3-0.1 0.1-0.1 0-0.2-0.1-0.3 0 0.1-0.1 0-0.1 0zM414.7 486.7h93.4M414.7 478.7h93.4v16h-93.4z" fill="#231815" p-id="17121"></path><path d="M412.5 486.8m-8.2 0a8.2 8.2 0 1 0 16.4 0 8.2 8.2 0 1 0-16.4 0Z" fill="#231815" p-id="17122"></path><path d="M412.5 503c-8.9 0-16.2-7.3-16.2-16.2 0-8.9 7.3-16.2 16.2-16.2s16.2 7.3 16.2 16.2c0 8.9-7.3 16.2-16.2 16.2z m0-16.4c-0.1 0-0.2 0.1-0.2 0.2 0 0.2 0.4 0.2 0.4 0 0-0.1-0.1-0.2-0.2-0.2zM427.2 533.4l80.9-46.7M504.113 479.69l8 13.856-80.885 46.7-8-13.856z" fill="#231815" p-id="17123"></path><path d="M425.4 534.6m-8.2 0a8.2 8.2 0 1 0 16.4 0 8.2 8.2 0 1 0-16.4 0Z" fill="#231815" p-id="17124"></path><path d="M425.4 550.8c-5.6 0-11.1-2.9-14.1-8.1-4.5-7.7-1.8-17.7 5.9-22.2s17.7-1.8 22.2 5.9c2.2 3.8 2.7 8.1 1.6 12.3-1.1 4.2-3.8 7.7-7.6 9.8-2.5 1.6-5.3 2.3-8 2.3z m-0.1-16.4c-0.1 0.1-0.1 0.2-0.1 0.3 0.1 0.1 0.2 0.1 0.3 0.1 0 0 0.1 0 0.1-0.1v-0.2s0-0.1-0.1-0.1c-0.2-0.1-0.2 0-0.2 0zM461.4 567.6l46.7-80.9M501.135 482.627l13.856 8-46.7 80.884-13.856-8z" fill="#231815" p-id="17125"></path><path d="M460.4 569.5m-8.2 0a8.2 8.2 0 1 0 16.4 0 8.2 8.2 0 1 0-16.4 0Z" fill="#231815" p-id="17126"></path><path d="M460.4 585.7c-2.8 0-5.6-0.7-8.1-2.2-3.8-2.2-6.4-5.7-7.6-9.8-1.1-4.2-0.5-8.6 1.6-12.3 2.2-3.8 5.7-6.4 9.8-7.6 4.2-1.1 8.6-0.5 12.3 1.6 3.8 2.2 6.4 5.7 7.6 9.8 1.1 4.2 0.5 8.6-1.6 12.3-2.2 3.8-5.7 6.4-9.8 7.6-1.4 0.5-2.8 0.6-4.2 0.6z m0-16.4c-0.2 0-0.2 0.1-0.2 0.1v0.2c0 0.1 0.1 0.1 0.1 0.1h0.2c0.1 0 0.1-0.1 0.1-0.1v-0.2c0-0.1-0.1-0.1-0.1-0.1h-0.1zM508.1 580.1v-93.4M500.1 486.7h16v93.4h-16z" fill="#231815" p-id="17127"></path><path d="M508.2 582.3m-8.2 0a8.2 8.2 0 1 0 16.4 0 8.2 8.2 0 1 0-16.4 0Z" fill="#231815" p-id="17128"></path><path d="M508.2 598.5c-8.9 0-16.2-7.3-16.2-16.2s7.3-16.2 16.2-16.2c8.9 0 16.2 7.3 16.2 16.2s-7.3 16.2-16.2 16.2z m0-16.4c-0.1 0-0.2 0.1-0.2 0.2 0 0.2 0.4 0.2 0.4 0 0-0.1-0.1-0.2-0.2-0.2z" fill="#231815" p-id="17129"></path><path d="M554.8 567.6l-46.7-80.9M515.055 482.606l46.7 80.885-13.856 8-46.7-80.885z" fill="#231815" p-id="17130"></path><path d="M556 569.4m-8.2 0a8.2 8.2 0 1 0 16.4 0 8.2 8.2 0 1 0-16.4 0Z" fill="#231815" p-id="17131"></path><path d="M556 585.6c-5.6 0-11.1-2.9-14.1-8.1-2.2-3.8-2.7-8.1-1.6-12.3 1.1-4.2 3.8-7.7 7.6-9.8 7.7-4.5 17.7-1.8 22.2 5.9s1.8 17.7-5.9 22.2c-2.6 1.4-5.4 2.1-8.2 2.1z m0-16.4h-0.1s-0.1 0-0.1 0.1v0.2c0.1 0.1 0.2 0.1 0.3 0.1 0.1-0.1 0.1-0.2 0.1-0.3-0.1-0.1-0.1-0.1-0.2-0.1z" fill="#231815" p-id="17132"></path><path d="M589 533.4l-80.9-46.7M512.071 479.682l80.885 46.7-8 13.856-80.885-46.7z" fill="#231815" p-id="17133"></path><path d="M590.9 534.4m-8.2 0a8.2 8.2 0 1 0 16.4 0 8.2 8.2 0 1 0-16.4 0Z" fill="#231815" p-id="17134"></path><path d="M590.9 550.6c-2.7 0-5.5-0.7-8.1-2.2-7.7-4.5-10.4-14.4-5.9-22.2 4.5-7.7 14.4-10.4 22.2-5.9 7.7 4.5 10.4 14.4 5.9 22.2-3 5.2-8.5 8.1-14.1 8.1z m-0.1-16c0.1 0.1 0.2 0 0.3-0.1 0.1-0.1 0-0.2-0.1-0.3-0.1-0.1-0.2 0-0.3 0.1 0 0.1 0 0.2 0.1 0.3z" fill="#231815" p-id="17135"></path><path d="M601.5 486.7h-93.4M508.1 478.7h93.4v16h-93.4z" fill="#231815" p-id="17136"></path><path d="M603.7 486.6m-8.2 0a8.2 8.2 0 1 0 16.4 0 8.2 8.2 0 1 0-16.4 0Z" fill="#231815" p-id="17137"></path><path d="M603.7 502.8c-8.9 0-16.2-7.3-16.2-16.2 0-8.9 7.3-16.2 16.2-16.2s16.2 7.3 16.2 16.2c0 8.9-7.2 16.2-16.2 16.2z m0-16.4c-0.1 0-0.2 0.1-0.2 0.2 0 0.2 0.4 0.2 0.4 0 0-0.1-0.1-0.2-0.2-0.2z" fill="#231815" p-id="17138"></path><path d="M589 440l-80.9 46.7M585.055 433.048l8 13.856-80.884 46.7-8-13.856z" fill="#231815" p-id="17139"></path><path d="M590.9 438.8m-8.2 0a8.2 8.2 0 1 0 16.4 0 8.2 8.2 0 1 0-16.4 0Z" fill="#231815" p-id="17140"></path><path d="M590.9 455c-1.4 0-2.8-0.2-4.2-0.6-4.2-1.1-7.7-3.8-9.8-7.6-4.5-7.7-1.8-17.7 5.9-22.2s17.7-1.8 22.2 5.9c2.2 3.8 2.7 8.1 1.6 12.3-1.1 4.2-3.8 7.7-7.6 9.8-2.5 1.7-5.3 2.4-8.1 2.4z m0-16.4h-0.1c-0.1 0.1-0.1 0.2-0.1 0.3 0 0 0 0.1 0.1 0.1h0.2s0.1 0 0.1-0.1v-0.2c-0.1-0.1-0.2-0.1-0.2-0.1z" fill="#231815" p-id="17141"></path><path d="M554.8 405.8l-46.7 80.9M547.913 401.766l13.856 8-46.7 80.885-13.856-8z" fill="#231815" p-id="17142"></path><path d="M555.8 403.8m-8.2 0a8.2 8.2 0 1 0 16.4 0 8.2 8.2 0 1 0-16.4 0Z" fill="#231815" p-id="17143"></path><path d="M555.8 420.1c-2.8 0-5.6-0.7-8.1-2.2-3.8-2.2-6.4-5.7-7.6-9.8-1.1-4.2-0.5-8.6 1.6-12.3 2.2-3.8 5.7-6.4 9.8-7.6 4.2-1.1 8.6-0.5 12.3 1.6 3.8 2.2 6.4 5.7 7.6 9.8 1.1 4.2 0.5 8.6-1.6 12.3-2.2 3.8-5.7 6.4-9.8 7.6-1.4 0.4-2.8 0.6-4.2 0.6z m0-16.5c-0.2 0-0.2 0.1-0.2 0.1v0.2c0 0.1 0.1 0.1 0.1 0.1h0.2c0.1 0 0.1-0.1 0.1-0.1v-0.2c0-0.1-0.1-0.1-0.1-0.1h-0.1z" fill="#231815" p-id="17144"></path><path d="M545.8 501.6l-38-18.2M511.231 476.172l38.065 18.218-6.907 14.432-38.065-18.218z" fill="#231815" p-id="17145"></path><path d="M526 445.4l-18.2 38M518.788 441.918l14.432 6.907-18.218 38.065-14.432-6.908z" fill="#231815" p-id="17146"></path><path d="M526.4 444.5m-3.7 0a3.7 3.7 0 1 0 7.4 0 3.7 3.7 0 1 0-7.4 0Z" fill="#231815" p-id="17147"></path><path d="M526.3 456.2c-1.7 0-3.4-0.4-5-1.2-2.8-1.4-4.9-3.7-6-6.7-1-3-0.9-6.1 0.5-9 1.3-2.8 3.7-4.9 6.7-6 2.9-1 6.1-0.9 8.9 0.5 2.8 1.4 4.9 3.7 6 6.7 1 3 0.9 6.1-0.5 9-1.4 2.8-3.7 4.9-6.7 6-1.2 0.5-2.5 0.7-3.9 0.7z m-3.8-13.6c-0.5 1-0.6 2.2-0.2 3.3 0.4 1.1 1.2 2 2.2 2.4 1 0.5 2.2 0.6 3.3 0.2 1.1-0.4 2-1.2 2.4-2.2l-0.5-0.3 0.5 0.3c0.5-1 0.6-2.2 0.2-3.3-0.4-1.1-1.2-2-2.2-2.4-1-0.5-2.2-0.6-3.3-0.2-1 0.4-1.9 1.2-2.4 2.2zM504.5 441.4l3.3 42M512.51 440.798l3.254 42.073-15.952 1.235-3.255-42.074z" fill="#231815" p-id="17148"></path><path d="M504.4 440.4m-3.7 0a3.7 3.7 0 1 0 7.4 0 3.7 3.7 0 1 0-7.4 0Z" fill="#231815" p-id="17149"></path><path d="M504.4 452.1c-2.8 0-5.5-1-7.6-2.8-2.4-2-3.8-4.9-4.1-8-0.5-6.4 4.3-12.1 10.8-12.6 3.1-0.2 6.1 0.7 8.5 2.8 2.4 2 3.8 4.9 4.1 8 0.2 3.1-0.7 6.1-2.8 8.5-2 2.4-4.9 3.8-8 4.1h-0.9z m-4.3-11.4c0.1 1.1 0.6 2.2 1.5 2.9 0.9 0.7 2 1.1 3.1 1 1.1-0.1 2.2-0.6 2.9-1.5 0.7-0.9 1.1-2 1-3.1h-0.6 0.6c-0.1-1.1-0.6-2.2-1.5-2.9-0.9-0.7-2-1.1-3.1-1-1.1 0.1-2.2 0.6-2.9 1.5-0.7 0.9-1.1 2-1 3.1zM483.9 448.6l23.9 34.8M490.564 444.136l23.856 34.81-13.199 9.045-23.855-34.81z" fill="#231815" p-id="17150"></path><path d="M483.3 447.9m-3.7 0a3.7 3.7 0 1 0 7.4 0 3.7 3.7 0 1 0-7.4 0Z" fill="#231815" p-id="17151"></path><path d="M483.4 459.6c-3.7 0-7.4-1.8-9.7-5.1-1.8-2.6-2.4-5.7-1.9-8.8 0.6-3.1 2.3-5.7 4.9-7.5 5.3-3.7 12.6-2.3 16.3 3 3.6 5.3 2.3 12.6-3 16.3-2.1 1.4-4.4 2.1-6.6 2.1z m-0.1-16c-0.8 0-1.7 0.2-2.4 0.8-0.9 0.6-1.6 1.6-1.8 2.8-0.2 1.1 0 2.3 0.7 3.2 1.3 2 4 2.5 6 1.1 0.9-0.6 1.6-1.6 1.8-2.8 0.2-1.1 0-2.3-0.7-3.2-0.9-1.3-2.2-1.9-3.6-1.9zM469.7 465.2l38.1 18.2M473.226 457.989l38.064 18.217-6.907 14.432-38.064-18.217z" fill="#231815" p-id="17152"></path><path d="M468.8 464.8m-3.7 0a3.7 3.7 0 1 0 7.4 0 3.7 3.7 0 1 0-7.4 0Z" fill="#231815" p-id="17153"></path><path d="M468.8 476.5c-1.7 0-3.4-0.4-5-1.1-2.8-1.3-4.9-3.7-6-6.7-1-2.9-0.9-6.1 0.5-8.9 2.8-5.8 9.8-8.3 15.6-5.5 5.8 2.8 8.3 9.8 5.5 15.6-2 4.2-6.2 6.6-10.6 6.6z m1.6-15l-3.5 7.2c2.1 1 4.7 0.1 5.7-2s0.1-4.7-2-5.7c-1-0.5-2.2-0.6-3.3-0.2-1.1 0.4-2 1.2-2.4 2.2-1 2.1-0.1 4.7 2 5.7l3.5-7.2zM465.7 486.7l42.1-3.3M507.125 475.398l1.235 15.952-42.074 3.255-1.234-15.952z" fill="#231815" p-id="17154"></path><path d="M464.8 486.8m-3.7 0a3.7 3.7 0 1 0 7.4 0 3.7 3.7 0 1 0-7.4 0Z" fill="#231815" p-id="17155"></path><path d="M464.7 498.5c-6 0-11.2-4.7-11.7-10.8-0.2-3.1 0.7-6.1 2.8-8.5 2-2.4 4.9-3.8 8-4.1 3.1-0.2 6.1 0.7 8.5 2.8 2.4 2 3.8 4.9 4.1 8 0.2 3.1-0.7 6.1-2.8 8.5-2 2.4-4.9 3.8-8 4.1h-0.9z m-0.3-16c-1.1 0.1-2.2 0.6-2.9 1.5-0.7 0.9-1.1 2-1 3.1s0.6 2.2 1.5 2.9 2 1.1 3.1 1c1.1-0.1 2.2-0.6 2.9-1.5 0.7-0.9 1.1-2 1-3.1-0.1-1.1-0.6-2.2-1.5-2.9s-1.9-1.1-3.1-1v0.6-0.6zM473 507.3l34.8-23.9M503.219 476.877l9.045 13.198-34.811 23.856-9.045-13.199z" fill="#231815" p-id="17156"></path><path d="M472.2 507.9m-3.7 0a3.7 3.7 0 1 0 7.4 0 3.7 3.7 0 1 0-7.4 0Z" fill="#231815" p-id="17157"></path><path d="M472.2 519.6c-3.7 0-7.4-1.8-9.7-5.1-3.6-5.3-2.3-12.6 3-16.3 5.3-3.7 12.6-2.3 16.3 3 3.6 5.3 2.3 12.6-3 16.3-2 1.4-4.3 2.1-6.6 2.1z m0-16c-0.8 0-1.7 0.2-2.4 0.8-0.9 0.6-1.6 1.6-1.8 2.8-0.2 1.1 0 2.3 0.7 3.2 1.3 2 4 2.4 6 1.1 2-1.3 2.5-4 1.1-6-0.9-1.3-2.2-1.9-3.6-1.9z" fill="#231815" p-id="17158"></path><path d="M489.6 521.5l18.2-38.1M500.55 480.05l14.432 6.909-18.222 38.064-14.432-6.909z" fill="#231815" p-id="17159"></path><path d="M489.2 522.4m-3.7 0a3.7 3.7 0 1 0 7.4 0 3.7 3.7 0 1 0-7.4 0Z" fill="#231815" p-id="17160"></path><path d="M489.2 534.1c-1.7 0-3.4-0.4-5-1.1-5.8-2.8-8.3-9.8-5.5-15.6 1.4-2.8 3.7-4.9 6.7-6 2.9-1 6.1-0.9 9 0.5 5.8 2.8 8.3 9.8 5.5 15.6-2.2 4.1-6.4 6.6-10.7 6.6z m0-16c-1.6 0-3.1 0.9-3.9 2.4-0.5 1-0.6 2.2-0.2 3.3 0.4 1.1 1.2 2 2.2 2.4 1 0.5 2.2 0.6 3.3 0.2 1.1-0.4 2-1.2 2.4-2.2l-7.2-3.5 7.2 3.5c1-2.1 0.1-4.7-2-5.7-0.6-0.3-1.2-0.4-1.8-0.4z" fill="#231815" p-id="17161"></path><path d="M511 525.5l-3.2-42.1M515.804 482.786l3.255 42.073-15.952 1.234-3.255-42.073z" fill="#231815" p-id="17162"></path><path d="M511.1 526.4m-3.7 0a3.7 3.7 0 1 0 7.4 0 3.7 3.7 0 1 0-7.4 0Z" fill="#231815" p-id="17163"></path><path d="M511.1 538.2c-2.8 0-5.5-1-7.6-2.8-2.4-2-3.8-4.9-4.1-8-0.2-3.1 0.7-6.1 2.8-8.5 2-2.4 4.9-3.8 8-4.1 6.4-0.5 12.1 4.3 12.6 10.8 0.5 6.4-4.3 12.1-10.8 12.6-0.3-0.1-0.6 0-0.9 0z m-4.2-11.4c0.2 2.4 2.3 4.1 4.6 3.9 1.1-0.1 2.2-0.6 2.9-1.5s1.1-2 1-3.1c-0.1-1.1-0.6-2.2-1.5-2.9-0.9-0.7-2-1.1-3.1-1-2.3 0.1-4.1 2.2-3.9 4.6h0.6-0.6z" fill="#231815" p-id="17164"></path><path d="M531.6 518.2l-23.8-34.8M514.368 478.897l23.856 34.811-13.198 9.045-23.856-34.81z" fill="#231815" p-id="17165"></path><path d="M532.2 519m-3.7 0a3.7 3.7 0 1 0 7.4 0 3.7 3.7 0 1 0-7.4 0Z" fill="#231815" p-id="17166"></path><path d="M532.2 530.7c-3.7 0-7.4-1.8-9.7-5.1-3.7-5.3-2.3-12.6 3-16.3 5.3-3.7 12.6-2.3 16.3 3 3.6 5.3 2.3 12.6-3 16.3-2 1.4-4.3 2.1-6.6 2.1z m0-16c-0.8 0-1.7 0.2-2.4 0.7-2 1.3-2.5 4-1.1 6 1.3 2 4 2.5 6 1.1 2-1.3 2.5-4 1.1-6-0.9-1.1-2.2-1.8-3.6-1.8z" fill="#231815" p-id="17167"></path><path d="M546.7 502m-3.7 0a3.7 3.7 0 1 0 7.4 0 3.7 3.7 0 1 0-7.4 0Z" fill="#231815" p-id="17168"></path><path d="M546.7 513.7c-1.7 0-3.4-0.4-5-1.1-2.8-1.4-4.9-3.7-6-6.7-1-3-0.9-6.1 0.5-9 1.3-2.8 3.7-4.9 6.7-6 2.9-1 6.1-0.9 9 0.5 2.8 1.4 4.9 3.7 6 6.7 1 3 0.9 6.1-0.5 9-2.1 4.2-6.3 6.6-10.7 6.6z m0-16c-1.6 0-3.1 0.9-3.9 2.4-0.5 1-0.6 2.2-0.2 3.3 0.4 1.1 1.2 2 2.2 2.4 1 0.5 2.2 0.6 3.3 0.2 1.1-0.4 2-1.2 2.4-2.2 1-2.1 0.1-4.7-2-5.7l-3.5 7.2 3.5-7.2c-0.5-0.2-1.2-0.4-1.8-0.4z" fill="#231815" p-id="17169"></path><path d="M549.8 480.2l-42 3.2M549.221 472.195l1.235 15.952-42.074 3.256-1.234-15.952z" fill="#231815" p-id="17170"></path><path d="M550.8 480.1m-3.7 0a3.7 3.7 0 1 0 7.4 0 3.7 3.7 0 1 0-7.4 0Z" fill="#231815" p-id="17171"></path><path d="M550.8 491.8c-2.8 0-5.5-1-7.6-2.8-2.4-2-3.8-4.9-4.1-8-0.2-3.1 0.7-6.1 2.8-8.5 2-2.4 4.9-3.8 8-4.1 3.1-0.2 6.1 0.7 8.5 2.8 2.4 2 3.8 4.9 4.1 8 0.2 3.1-0.7 6.1-2.8 8.5s-4.9 3.8-8 4.1h-0.9z m-0.3-16c-1.1 0.1-2.2 0.6-2.9 1.5-0.7 0.9-1.1 2-1 3.1 0.1 1.1 0.6 2.2 1.5 2.9 0.9 0.7 2 1.1 3.1 1v-0.6 0.6c1.1-0.1 2.2-0.6 2.9-1.5 0.7-0.9 1.1-2 1-3.1-0.1-1.1-0.6-2.2-1.5-2.9-0.9-0.7-2-1.1-3.1-1z" fill="#231815" p-id="17172"></path><path d="M542.6 459.6l-34.8 23.8M538.063 453.016l9.045 13.198-34.811 23.856-9.045-13.199z" fill="#231815" p-id="17173"></path><path d="M543.3 459m-3.7 0a3.7 3.7 0 1 0 7.4 0 3.7 3.7 0 1 0-7.4 0Z" fill="#231815" p-id="17174"></path><path d="M543.4 470.7c-0.7 0-1.4-0.1-2.2-0.2-3.1-0.6-5.7-2.3-7.5-4.9-1.8-2.6-2.4-5.7-1.9-8.8 0.6-3.1 2.3-5.7 4.9-7.5 2.6-1.8 5.7-2.4 8.8-1.9 3.1 0.6 5.7 2.3 7.5 4.9 1.8 2.6 2.4 5.7 1.9 8.8-0.6 3.1-2.3 5.7-4.9 7.5-2 1.4-4.3 2.1-6.6 2.1z m-2.5-15.2c-0.9 0.6-1.6 1.6-1.8 2.8s0 2.3 0.7 3.2c0.6 0.9 1.6 1.6 2.8 1.8 1.1 0.2 2.3 0 3.2-0.7l-0.3-0.5 0.3 0.5c0.9-0.6 1.6-1.6 1.8-2.8s0-2.3-0.7-3.2c-0.6-0.9-1.6-1.6-2.8-1.8-1.1-0.2-2.3 0-3.2 0.7z" fill="#231815" p-id="17175"></path></svg>