<?xml version="1.0" encoding="utf-8"?>
<svg version="1.1" xmlns:xlink="http://www.w3.org/1999/xlink" width="12px" height="12px" viewBox="1087 481.5  12 12" xmlns="http://www.w3.org/2000/svg">
  <path d="M 1093 481.5  C 1096.36 481.5  1099 484.14  1099 487.5  C 1099 490.86  1096.36 493.5  1093 493.5  C 1089.64 493.5  1087 490.86  1087 487.5  C 1087 484.14  1089.64 481.5  1093 481.5  Z " fill-rule="nonzero" fill="#ffffff" stroke="none" />
  <path d="M 1093 482  C 1096.08 482  1098.5 484.42  1098.5 487.5  C 1098.5 490.58  1096.08 493  1093 493  C 1089.92 493  1087.5 490.58  1087.5 487.5  C 1087.5 484.42  1089.92 482  1093 482  Z " stroke-width="1" stroke="#797979" fill="none" />
  <path d="M 1093 490.5  C 1091.32 490.5  1090 489.18  1090 487.5  C 1090 485.82  1091.32 484.5  1093 484.5  C 1094.68 484.5  1096 485.82  1096 487.5  C 1096 489.18  1094.68 490.5  1093 490.5  " fill-rule="nonzero" fill="#797979" stroke="none" />
</svg>