<?xml version="1.0" encoding="utf-8"?>
<svg version="1.1" xmlns:xlink="http://www.w3.org/1999/xlink" width="30px" height="30px" viewBox="319 215  30 30" xmlns="http://www.w3.org/2000/svg">
  <path d="M 334 215  C 342.4 215  349 221.6  349 230  C 349 238.4  342.4 245  334 245  C 325.6 245  319 238.4  319 230  C 319 221.6  325.6 215  334 215  Z " fill-rule="nonzero" fill="#f0f0f0" stroke="none" />
  <path d="M 334 215.5  C 342.12 215.5  348.5 221.88  348.5 230  C 348.5 238.12  342.12 244.5  334 244.5  C 325.88 244.5  319.5 238.12  319.5 230  C 319.5 221.88  325.88 215.5  334 215.5  Z " stroke-width="1" stroke="#797979" fill="none" />
  <path d="M 334 237.5  C 329.8 237.5  326.5 234.2  326.5 230  C 326.5 225.8  329.8 222.5  334 222.5  C 338.2 222.5  341.5 225.8  341.5 230  C 341.5 234.2  338.2 237.5  334 237.5  " fill-rule="nonzero" fill="#797979" stroke="none" />
</svg>