<?xml version="1.0" encoding="utf-8"?>
<svg version="1.1" xmlns:xlink="http://www.w3.org/1999/xlink" width="23px" height="17px" xmlns="http://www.w3.org/2000/svg">
  <g transform="matrix(1 0 0 1 -650 -143 )">
    <path d="M 10.955322265625 7.2548828125  C 10.113037109375 8.0849609375  9.0966796875 8.5  7.90625 8.5  C 6.7158203125 8.5  5.699462890625 8.0849609375  4.857177734375 7.2548828125  C 4.014892578125 6.4248046875  3.59375 5.42317708333333  3.59375 4.25  C 3.59375 3.07682291666667  4.014892578125 2.0751953125  4.857177734375 1.2451171875  C 5.699462890625 0.4150390625  6.7158203125 0  7.90625 0  C 9.0966796875 0  10.113037109375 0.4150390625  10.955322265625 1.2451171875  C 11.797607421875 2.0751953125  12.21875 3.07682291666667  12.21875 4.25  C 12.21875 5.42317708333333  11.797607421875 6.4248046875  10.955322265625 7.2548828125  Z M 18.6875 6.02083333333333  L 18.6875 9.91666666666667  L 22.640625 9.91666666666667  C 22.7379557291667 9.91666666666667  22.8221842447917 9.95171440972222  22.893310546875 10.0218098958333  C 22.9644368489583 10.0919053819444  23 10.1749131944444  23 10.2708333333333  L 23 12.3958333333333  C 23 12.4917534722222  22.9644368489583 12.5747612847222  22.893310546875 12.6448567708333  C 22.8221842447917 12.7149522569444  22.7379557291667 12.75  22.640625 12.75  L 18.6875 12.75  L 18.6875 16.6458333333333  C 18.6875 16.7417534722222  18.6519368489583 16.8247612847222  18.580810546875 16.8948567708333  C 18.5096842447917 16.9649522569444  18.4254557291667 17  18.328125 17  L 16.171875 17  C 16.0745442708333 17  15.9903157552083 16.9649522569444  15.919189453125 16.8948567708333  C 15.8480631510417 16.8247612847222  15.8125 16.7417534722222  15.8125 16.6458333333333  L 15.8125 12.75  L 11.859375 12.75  C 11.7620442708333 12.75  11.6778157552083 12.7149522569444  11.606689453125 12.6448567708333  C 11.5355631510417 12.5747612847222  11.5 12.4917534722222  11.5 12.3958333333333  L 11.5 10.2708333333333  C 11.5 10.1749131944444  11.5355631510417 10.0919053819444  11.606689453125 10.0218098958333  C 11.6778157552083 9.95171440972222  11.7620442708333 9.91666666666667  11.859375 9.91666666666667  L 15.8125 9.91666666666667  L 15.8125 6.02083333333333  C 15.8125 5.92491319444444  15.8480631510417 5.84190538194444  15.919189453125 5.77180989583333  C 15.9903157552083 5.70171440972222  16.0745442708333 5.66666666666667  16.171875 5.66666666666667  L 18.328125 5.66666666666667  C 18.4254557291667 5.66666666666667  18.5096842447917 5.70171440972222  18.580810546875 5.77180989583333  C 18.6519368489583 5.84190538194444  18.6875 5.92491319444444  18.6875 6.02083333333333  Z M 10.421875 10.2708333333333  L 10.421875 12.3958333333333  C 10.421875 12.7795138888889  10.5641276041667 13.1115451388889  10.8486328125 13.3919270833333  C 11.1331380208333 13.6723090277778  11.4700520833333 13.8125  11.859375 13.8125  L 14.734375 13.8125  L 14.734375 16.4466145833333  C 14.2252604166667 16.8155381944444  13.5851236979167 17  12.81396484375 17  L 2.99853515625 17  C 2.09261067708333 17  1.36637369791667 16.7454427083333  0.81982421875 16.236328125  C 0.273274739583333 15.7272135416667  0 15.0262586805556  0 14.1334635416667  C 0 13.7424045138889  0.0131022135416667 13.3605685763889  0.039306640625 12.9879557291667  C 0.0655110677083333 12.6153428819444  0.117919921875 12.2132161458333  0.196533203125 11.7815755208333  C 0.275146484375 11.3499348958333  0.374348958333333 10.9496527777778  0.494140625 10.5807291666667  C 0.613932291666667 10.2118055555556  0.77490234375 9.85210503472222  0.97705078125 9.50162760416667  C 1.17919921875 9.15115017361111  1.41129557291667 8.85232204861111  1.67333984375 8.60514322916667  C 1.93538411458333 8.35796440972222  2.25545247395833 8.16059027777778  2.633544921875 8.01302083333333  C 3.01163736979167 7.86545138888889  3.42903645833333 7.79166666666667  3.8857421875 7.79166666666667  C 4.02799479166667 7.79166666666667  4.17399088541667 7.85438368055556  4.32373046875 7.97981770833333  C 4.91520182291667 8.42990451388889  5.49357096354167 8.76746961805556  6.058837890625 8.99251302083333  C 6.62410481770833 9.21755642361111  7.23990885416667 9.330078125  7.90625 9.330078125  C 8.57259114583333 9.330078125  9.18839518229167 9.21755642361111  9.753662109375 8.99251302083333  C 10.3189290364583 8.76746961805556  10.8972981770833 8.42990451388889  11.48876953125 7.97981770833333  C 11.6385091145833 7.85438368055556  11.7845052083333 7.79166666666667  11.9267578125 7.79166666666667  C 12.9150390625 7.79166666666667  13.7273763020833 8.14583333333333  14.36376953125 8.85416666666667  L 11.859375 8.85416666666667  C 11.4700520833333 8.85416666666667  11.1331380208333 8.99435763888889  10.8486328125 9.27473958333333  C 10.5641276041667 9.55512152777778  10.421875 9.88715277777778  10.421875 10.2708333333333  Z " fill-rule="nonzero" fill="#000000" stroke="none" transform="matrix(1 0 0 1 650 143 )" />
  </g>
</svg>