<?xml version="1.0" encoding="utf-8"?>
<svg version="1.1" xmlns:xlink="http://www.w3.org/1999/xlink" width="44px" height="42px" xmlns="http://www.w3.org/2000/svg">
  <defs>
    <mask fill="white" id="clip19">
      <path d="M 42.5192307692308 15.0586011342155  C 43.5064102564103 15.2173913043478  44 15.6231884057971  44 16.2759924385633  C 44 16.6641461877757  43.7708333333333 17.0875866414619  43.3125 17.5463137996219  L 33.7139423076923 26.9149338374291  L 35.9879807692308 40.1474480151229  C 36.005608974359 40.2709514807813  36.0144230769231 40.4473850031506  36.0144230769231 40.6767485822306  C 36.0144230769231 41.047258979206  35.921875 41.3604284814115  35.7367788461538 41.6162570888469  C 35.5516826923077 41.8720856962823  35.2828525641026 42  34.9302884615385 42  C 34.5953525641026 42  34.2427884615385 41.8941398865785  33.8725961538462 41.6824196597354  L 22 35.4366729678639  L 10.1274038461538 41.6824196597354  C 9.73958333333333 41.8941398865785  9.38701923076923 42  9.06971153846154 42  C 8.69951923076923 42  8.421875 41.8720856962823  8.23677884615384 41.6162570888469  C 8.05168269230769 41.3604284814115  7.95913461538462 41.047258979206  7.95913461538462 40.6767485822306  C 7.95913461538462 40.5708884688091  7.97676282051282 40.3944549464398  8.01201923076923 40.1474480151229  L 10.2860576923077 26.9149338374291  L 0.661057692307692 17.5463137996219  C 0.220352564102564 17.069943289225  0 16.6465028355388  0 16.2759924385633  C 0 15.6231884057971  0.493589743589744 15.2173913043478  1.48076923076923 15.0586011342155  L 14.7548076923077 13.1266540642722  L 20.7043269230769 1.08506616257089  C 21.0392628205128 0.361688720856961  21.4711538461538 0  22 0  C 22.5288461538462 0  22.9607371794872 0.361688720856961  23.2956730769231 1.08506616257089  L 29.2451923076923 13.1266540642722  L 42.5192307692308 15.0586011342155  Z " fill-rule="evenodd" />
    </mask>
  </defs>
  <g transform="matrix(1 0 0 1 -412 -186 )">
    <path d="M 42.5192307692308 15.0586011342155  C 43.5064102564103 15.2173913043478  44 15.6231884057971  44 16.2759924385633  C 44 16.6641461877757  43.7708333333333 17.0875866414619  43.3125 17.5463137996219  L 33.7139423076923 26.9149338374291  L 35.9879807692308 40.1474480151229  C 36.005608974359 40.2709514807813  36.0144230769231 40.4473850031506  36.0144230769231 40.6767485822306  C 36.0144230769231 41.047258979206  35.921875 41.3604284814115  35.7367788461538 41.6162570888469  C 35.5516826923077 41.8720856962823  35.2828525641026 42  34.9302884615385 42  C 34.5953525641026 42  34.2427884615385 41.8941398865785  33.8725961538462 41.6824196597354  L 22 35.4366729678639  L 10.1274038461538 41.6824196597354  C 9.73958333333333 41.8941398865785  9.38701923076923 42  9.06971153846154 42  C 8.69951923076923 42  8.421875 41.8720856962823  8.23677884615384 41.6162570888469  C 8.05168269230769 41.3604284814115  7.95913461538462 41.047258979206  7.95913461538462 40.6767485822306  C 7.95913461538462 40.5708884688091  7.97676282051282 40.3944549464398  8.01201923076923 40.1474480151229  L 10.2860576923077 26.9149338374291  L 0.661057692307692 17.5463137996219  C 0.220352564102564 17.069943289225  0 16.6465028355388  0 16.2759924385633  C 0 15.6231884057971  0.493589743589744 15.2173913043478  1.48076923076923 15.0586011342155  L 14.7548076923077 13.1266540642722  L 20.7043269230769 1.08506616257089  C 21.0392628205128 0.361688720856961  21.4711538461538 0  22 0  C 22.5288461538462 0  22.9607371794872 0.361688720856961  23.2956730769231 1.08506616257089  L 29.2451923076923 13.1266540642722  L 42.5192307692308 15.0586011342155  Z " fill-rule="nonzero" fill="#f0ef55" stroke="none" transform="matrix(1 0 0 1 412 186 )" />
    <path d="M 42.5192307692308 15.0586011342155  C 43.5064102564103 15.2173913043478  44 15.6231884057971  44 16.2759924385633  C 44 16.6641461877757  43.7708333333333 17.0875866414619  43.3125 17.5463137996219  L 33.7139423076923 26.9149338374291  L 35.9879807692308 40.1474480151229  C 36.005608974359 40.2709514807813  36.0144230769231 40.4473850031506  36.0144230769231 40.6767485822306  C 36.0144230769231 41.047258979206  35.921875 41.3604284814115  35.7367788461538 41.6162570888469  C 35.5516826923077 41.8720856962823  35.2828525641026 42  34.9302884615385 42  C 34.5953525641026 42  34.2427884615385 41.8941398865785  33.8725961538462 41.6824196597354  L 22 35.4366729678639  L 10.1274038461538 41.6824196597354  C 9.73958333333333 41.8941398865785  9.38701923076923 42  9.06971153846154 42  C 8.69951923076923 42  8.421875 41.8720856962823  8.23677884615384 41.6162570888469  C 8.05168269230769 41.3604284814115  7.95913461538462 41.047258979206  7.95913461538462 40.6767485822306  C 7.95913461538462 40.5708884688091  7.97676282051282 40.3944549464398  8.01201923076923 40.1474480151229  L 10.2860576923077 26.9149338374291  L 0.661057692307692 17.5463137996219  C 0.220352564102564 17.069943289225  0 16.6465028355388  0 16.2759924385633  C 0 15.6231884057971  0.493589743589744 15.2173913043478  1.48076923076923 15.0586011342155  L 14.7548076923077 13.1266540642722  L 20.7043269230769 1.08506616257089  C 21.0392628205128 0.361688720856961  21.4711538461538 0  22 0  C 22.5288461538462 0  22.9607371794872 0.361688720856961  23.2956730769231 1.08506616257089  L 29.2451923076923 13.1266540642722  L 42.5192307692308 15.0586011342155  Z " stroke-width="6" stroke="#000000" fill="none" stroke-opacity="0.949019607843137" transform="matrix(1 0 0 1 412 186 )" mask="url(#clip19)" />
  </g>
</svg>