<?xml version="1.0" encoding="utf-8"?>
<svg version="1.1" xmlns:xlink="http://www.w3.org/1999/xlink" width="42px" height="36px" xmlns="http://www.w3.org/2000/svg">
  <g transform="matrix(1 0 0 1 -521 -190 )">
    <path d="M 14.12109375 12.87890625  C 14.70703125 13.46484375  15 14.171875  15 15  C 15 15.828125  14.70703125 16.53515625  14.12109375 17.12109375  C 13.53515625 17.70703125  12.828125 18  12 18  C 11.171875 18  10.46484375 17.70703125  9.87890625 17.12109375  C 9.29296875 16.53515625  9 15.828125  9 15  C 9 14.171875  9.29296875 13.46484375  9.87890625 12.87890625  C 10.46484375 12.29296875  11.171875 12  12 12  C 12.828125 12  13.53515625 12.29296875  14.12109375 12.87890625  Z M 23.12109375 12.87890625  C 23.70703125 13.46484375  24 14.171875  24 15  C 24 15.828125  23.70703125 16.53515625  23.12109375 17.12109375  C 22.53515625 17.70703125  21.828125 18  21 18  C 20.171875 18  19.46484375 17.70703125  18.87890625 17.12109375  C 18.29296875 16.53515625  18 15.828125  18 15  C 18 14.171875  18.29296875 13.46484375  18.87890625 12.87890625  C 19.46484375 12.29296875  20.171875 12  21 12  C 21.828125 12  22.53515625 12.29296875  23.12109375 12.87890625  Z M 32.12109375 12.87890625  C 32.70703125 13.46484375  33 14.171875  33 15  C 33 15.828125  32.70703125 16.53515625  32.12109375 17.12109375  C 31.53515625 17.70703125  30.828125 18  30 18  C 29.171875 18  28.46484375 17.70703125  27.87890625 17.12109375  C 27.29296875 16.53515625  27 15.828125  27 15  C 27 14.171875  27.29296875 13.46484375  27.87890625 12.87890625  C 28.46484375 12.29296875  29.171875 12  30 12  C 30.828125 12  31.53515625 12.29296875  32.12109375 12.87890625  Z M 29.94140625 4.62890625  C 27.16796875 3.54296875  24.1875 3  21 3  C 17.8125 3  14.83203125 3.54296875  12.05859375 4.62890625  C 9.28515625 5.71484375  7.08203125 7.1796875  5.44921875 9.0234375  C 3.81640625 10.8671875  3 12.859375  3 15  C 3 16.75  3.55859375 18.41796875  4.67578125 20.00390625  C 5.79296875 21.58984375  7.3671875 22.9609375  9.3984375 24.1171875  L 11.4375 25.2890625  L 10.8046875 27.5390625  C 10.4296875 28.9609375  9.8828125 30.3046875  9.1640625 31.5703125  C 11.5390625 30.5859375  13.6875 29.25  15.609375 27.5625  L 16.6171875 26.671875  L 17.953125 26.8125  C 19.03125 26.9375  20.046875 27  21 27  C 24.1875 27  27.16796875 26.45703125  29.94140625 25.37109375  C 32.71484375 24.28515625  34.91796875 22.8203125  36.55078125 20.9765625  C 38.18359375 19.1328125  39 17.140625  39 15  C 39 12.859375  38.18359375 10.8671875  36.55078125 9.0234375  C 34.91796875 7.1796875  32.71484375 5.71484375  29.94140625 4.62890625  Z M 40.3359375 9.17578125  C 41.4453125 11.02734375  42 12.96875  42 15  C 42 17.71875  41.0625 20.23046875  39.1875 22.53515625  C 37.3125 24.83984375  34.765625 26.66015625  31.546875 27.99609375  C 28.328125 29.33203125  24.8125 30  21 30  C 19.90625 30  18.7734375 29.9375  17.6015625 29.8125  C 14.5078125 32.546875  10.9140625 34.4375  6.8203125 35.484375  C 6.0546875 35.703125  5.1640625 35.875  4.1484375 36  L 4.03125 36  C 3.796875 36  3.5859375 35.91796875  3.3984375 35.75390625  C 3.2109375 35.58984375  3.0859375 35.375  3.0234375 35.109375  L 3.0234375 35.0859375  C 2.9765625 35.0234375  2.97265625 34.9296875  3.01171875 34.8046875  C 3.05078125 34.6796875  3.06640625 34.6015625  3.05859375 34.5703125  C 3.05078125 34.5390625  3.0859375 34.46484375  3.1640625 34.34765625  L 3.3046875 34.13671875  C 3.3046875 34.13671875  3.359375 34.0703125  3.46875 33.9375  C 3.578125 33.8046875  3.640625 33.734375  3.65625 33.7265625  C 3.765625 33.6015625  4.0078125 33.33203125  4.3828125 32.91796875  C 4.7578125 32.50390625  5.02734375 32.20703125  5.19140625 32.02734375  C 5.35546875 31.84765625  5.59765625 31.5390625  5.91796875 31.1015625  C 6.23828125 30.6640625  6.4921875 30.265625  6.6796875 29.90625  C 6.8671875 29.546875  7.078125 29.0859375  7.3125 28.5234375  C 7.546875 27.9609375  7.75 27.3671875  7.921875 26.7421875  C 5.46875 25.3515625  3.53515625 23.6328125  2.12109375 21.5859375  C 0.70703125 19.5390625  0 17.34375  0 15  C 0 12.96875  0.5546875 11.02734375  1.6640625 9.17578125  C 2.7734375 7.32421875  4.265625 5.7265625  6.140625 4.3828125  C 8.015625 3.0390625  10.25 1.97265625  12.84375 1.18359375  C 15.4375 0.394531249999998  18.15625 0  21 0  C 23.84375 0  26.5625 0.394531249999998  29.15625 1.18359375  C 31.75 1.97265625  33.984375 3.0390625  35.859375 4.3828125  C 37.734375 5.7265625  39.2265625 7.32421875  40.3359375 9.17578125  Z " fill-rule="nonzero" fill="#000000" stroke="none" transform="matrix(1 0 0 1 521 190 )" />
  </g>
</svg>