<?xml version="1.0" standalone="no"?><!DOCTYPE svg PUBLIC "-//W3C//DTD SVG 1.1//EN" "http://www.w3.org/Graphics/SVG/1.1/DTD/svg11.dtd"><svg t="1686419395176" class="icon" viewBox="0 0 1025 1024" version="1.1" xmlns="http://www.w3.org/2000/svg" p-id="21239" xmlns:xlink="http://www.w3.org/1999/xlink" width="200.1953125" height="200"><path d="M1024.039909 845.534376c-55.238069 105.918331-167.732166 178.465624-297.440319 178.465624-129.71634 0-242.209414-72.548316-297.446459-178.465624 39.740096-76.241428 109.401666-134.661979 193.549158-161.710009-39.850613-20.031219-83.607186-33.416064-130.040728-38.236859-8.760524 0.698918-17.516956 1.323135-26.462698 1.323135-12.550851 0-24.913413-0.859577-37.134759-2.218528C248.203942 655.891178 101.8292 793.08584 76.455299 969.623555l-3.837398 20.231787c-2.958378 18.650779-15.306614 34.143635-35.9467 33.933857-19.519566-0.198521-35.322483-15.245216-35.322483-34.043351l-0.325411-3.160993c0-6.29538 2.789533-16.962324 2.789533-16.962324C29.467125 800.966321 147.699923 662.434198 305.858036 605.360318 206.120474 549.951357 138.66106 444.673615 138.66106 323.710636c0-178.490184 146.654105-323.189773 327.537801-323.189773 180.90314 0 327.558267 144.69959 327.558267 323.189773 0 120.927163-67.435878 226.173183-167.102832 281.5934 42.615587 15.360849 82.141812 36.833907 117.9299 63.010079C866.561271 674.737408 971.383642 744.591359 1024.039909 845.534376zM714.977901 321.94441c0-137.972375-111.909789-249.815649-249.945609-249.815649-138.052193 0-249.963005 111.844298-249.963005 249.815649 0 137.962142 111.910812 249.804393 249.963005 249.804393C603.068112 571.748802 714.977901 459.905528 714.977901 321.94441zM715.045439 738.454592c-68.339458 0-130.406049 39.398312-130.406049 39.398312s-62.559824 41.913599-84.049255 70.167083c21.48943 28.256554 50.169633 52.261271 84.001159 70.15378 42.527582 22.540366 91.651396 34.440393 142.007271 34.440393 0.044002 0 0.090051-0.023536 0.140193-0.023536-59.074444-0.070608-106.915032-47.960315-106.915032-107.056248 0-57.848523 45.939285-104.675014 103.288434-106.692974C720.348212 738.770793 717.930139 738.454592 715.045439 738.454592zM690.995697 845.534376c0 19.707854 15.965623 35.693944 35.669384 35.693944 19.730367 0 35.691897-15.986089 35.691897-35.693944 0-19.705807-15.96153-35.69292-35.691897-35.69292C706.96132 809.841455 690.995697 825.828568 690.995697 845.534376zM833.981249 845.534376c0 58.932204-47.637973 106.71037-106.499569 107.009176 50.028417-0.115634 98.828866-11.965519 141.098575-34.369785 33.834596-17.891486 62.531172-41.896202 84.051301-70.15378-21.519106-28.234041-84.051301-70.167083-84.051301-70.167083s-44.287669-33.157167-131.291209-38.352493C791.478226 744.800114 833.981249 789.948383 833.981249 845.534376z" fill="#272636" p-id="21240"></path></svg>