<?xml version="1.0" standalone="no"?><!DOCTYPE svg PUBLIC "-//W3C//DTD SVG 1.1//EN" "http://www.w3.org/Graphics/SVG/1.1/DTD/svg11.dtd"><svg t="1686459822047" class="icon" viewBox="0 0 1024 1024" version="1.1" xmlns="http://www.w3.org/2000/svg" p-id="2357" xmlns:xlink="http://www.w3.org/1999/xlink" width="200" height="200"><path d="M511.96928 32.01024c-264.70912 0-479.98464 215.29088-479.98464 480s215.27552 480 479.98464 480 480.01536-215.29088 480.01536-480-215.30624-480-480.01536-480z m0 896.01024c-229.4016 0-415.99488-186.62912-415.99488-416.01024 0-229.39648 186.59328-416.01024 415.99488-416.01024 229.39648 0 415.9744 186.61888 415.9744 416.01024 0 229.38112-186.57792 416.01024-415.9744 416.01024z" fill="#243154" p-id="2358"></path><path d="M307.20512 508.91264s48.40448 48.57344 81.55136 78.09536a111.85664 111.85664 0 0 0 30.75584-77.19936 111.93344 111.93344 0 0 0-33.24928-79.77984c-42.40384 42.33216-79.05792 78.88384-79.05792 78.88384zM538.86976 272.13824c56.85248 60.13952 91.97568 141.01504 91.97568 230.12352 0 91.64288-37.00224 174.78144-96.77312 235.41248l34.95424 35.73248c69.02784-69.71904 111.73888-165.5296 111.73888-271.13984 0-103.05536-40.71424-196.736-106.83392-265.96864l-35.06176 35.84z" fill="#243154" p-id="2359"></path><path d="M479.09376 333.25568l-34.91328 35.69152c31.74912 35.4304 51.26144 82.08384 51.26144 133.31456 0 53.7856-21.43744 102.58432-56.05888 138.60352l34.9184 35.69664c43.89376-45.1072 71.05536-106.55232 71.05536-174.30016 0-65.19808-25.2672-124.4416-66.26304-169.00608z" fill="#243154" p-id="2360"></path></svg>