<?xml version="1.0" encoding="utf-8"?>
<svg version="1.1" xmlns:xlink="http://www.w3.org/1999/xlink" width="24px" height="20px" xmlns="http://www.w3.org/2000/svg">
  <defs>
    <mask fill="white" id="clip8">
      <path d="M 12.5892857142857 19.765625  C 12.4285714285714 19.921875  12.2321428571429 20  12 20  C 11.7678571428571 20  11.5714285714286 19.921875  11.4107142857143 19.765625  L 3.05357142857143 11.9270833333333  C 2.96428571428571 11.8576388888889  2.84151785714286 11.7447916666667  2.68526785714286 11.5885416666667  C 2.52901785714286 11.4322916666667  2.28125 11.1480034722222  1.94196428571429 10.7356770833333  C 1.60267857142857 10.3233506944444  1.29910714285714 9.90017361111111  1.03125 9.46614583333333  C 0.763392857142857 9.03211805555556  0.524553571428572 8.50694444444444  0.314732142857143 7.890625  C 0.104910714285714 7.27430555555555  0 6.67534722222222  0 6.09375  C 0 4.18402777777778  0.566964285714286 2.69097222222222  1.70089285714286 1.61458333333333  C 2.83482142857143 0.538194444444444  4.40178571428571 0  6.40178571428572 0  C 6.95535714285714 0  7.52008928571428 0.093315972222221  8.09598214285714 0.279947916666667  C 8.671875 0.466579861111109  9.20758928571428 0.718315972222221  9.703125 1.03515625  C 10.1986607142857 1.35199652777778  10.625 1.64930555555555  10.9821428571429 1.92708333333333  C 11.3392857142857 2.20486111111111  11.6785714285714 2.5  12 2.8125  C 12.3214285714286 2.5  12.6607142857143 2.20486111111111  13.0178571428571 1.92708333333333  C 13.375 1.64930555555555  13.8013392857143 1.35199652777778  14.296875 1.03515625  C 14.7924107142857 0.718315972222221  15.328125 0.466579861111109  15.9040178571429 0.279947916666667  C 16.4799107142857 0.093315972222221  17.0446428571429 0  17.5982142857143 0  C 19.5982142857143 0  21.1651785714286 0.538194444444444  22.2991071428571 1.61458333333333  C 23.4330357142857 2.69097222222222  24 4.18402777777778  24 6.09375  C 24 8.01215277777778  22.9776785714286 9.96527777777778  20.9330357142857 11.953125  L 12.5892857142857 19.765625  Z " fill-rule="evenodd" />
    </mask>
  </defs>
  <g transform="matrix(1 0 0 1 -538 -857 )">
    <path d="M 12.5892857142857 19.765625  C 12.4285714285714 19.921875  12.2321428571429 20  12 20  C 11.7678571428571 20  11.5714285714286 19.921875  11.4107142857143 19.765625  L 3.05357142857143 11.9270833333333  C 2.96428571428571 11.8576388888889  2.84151785714286 11.7447916666667  2.68526785714286 11.5885416666667  C 2.52901785714286 11.4322916666667  2.28125 11.1480034722222  1.94196428571429 10.7356770833333  C 1.60267857142857 10.3233506944444  1.29910714285714 9.90017361111111  1.03125 9.46614583333333  C 0.763392857142857 9.03211805555556  0.524553571428572 8.50694444444444  0.314732142857143 7.890625  C 0.104910714285714 7.27430555555555  0 6.67534722222222  0 6.09375  C 0 4.18402777777778  0.566964285714286 2.69097222222222  1.70089285714286 1.61458333333333  C 2.83482142857143 0.538194444444444  4.40178571428571 0  6.40178571428572 0  C 6.95535714285714 0  7.52008928571428 0.093315972222221  8.09598214285714 0.279947916666667  C 8.671875 0.466579861111109  9.20758928571428 0.718315972222221  9.703125 1.03515625  C 10.1986607142857 1.35199652777778  10.625 1.64930555555555  10.9821428571429 1.92708333333333  C 11.3392857142857 2.20486111111111  11.6785714285714 2.5  12 2.8125  C 12.3214285714286 2.5  12.6607142857143 2.20486111111111  13.0178571428571 1.92708333333333  C 13.375 1.64930555555555  13.8013392857143 1.35199652777778  14.296875 1.03515625  C 14.7924107142857 0.718315972222221  15.328125 0.466579861111109  15.9040178571429 0.279947916666667  C 16.4799107142857 0.093315972222221  17.0446428571429 0  17.5982142857143 0  C 19.5982142857143 0  21.1651785714286 0.538194444444444  22.2991071428571 1.61458333333333  C 23.4330357142857 2.69097222222222  24 4.18402777777778  24 6.09375  C 24 8.01215277777778  22.9776785714286 9.96527777777778  20.9330357142857 11.953125  L 12.5892857142857 19.765625  Z " fill-rule="nonzero" fill="#402424" stroke="none" fill-opacity="0" transform="matrix(1 0 0 1 538 857 )" />
    <path d="M 12.5892857142857 19.765625  C 12.4285714285714 19.921875  12.2321428571429 20  12 20  C 11.7678571428571 20  11.5714285714286 19.921875  11.4107142857143 19.765625  L 3.05357142857143 11.9270833333333  C 2.96428571428571 11.8576388888889  2.84151785714286 11.7447916666667  2.68526785714286 11.5885416666667  C 2.52901785714286 11.4322916666667  2.28125 11.1480034722222  1.94196428571429 10.7356770833333  C 1.60267857142857 10.3233506944444  1.29910714285714 9.90017361111111  1.03125 9.46614583333333  C 0.763392857142857 9.03211805555556  0.524553571428572 8.50694444444444  0.314732142857143 7.890625  C 0.104910714285714 7.27430555555555  0 6.67534722222222  0 6.09375  C 0 4.18402777777778  0.566964285714286 2.69097222222222  1.70089285714286 1.61458333333333  C 2.83482142857143 0.538194444444444  4.40178571428571 0  6.40178571428572 0  C 6.95535714285714 0  7.52008928571428 0.093315972222221  8.09598214285714 0.279947916666667  C 8.671875 0.466579861111109  9.20758928571428 0.718315972222221  9.703125 1.03515625  C 10.1986607142857 1.35199652777778  10.625 1.64930555555555  10.9821428571429 1.92708333333333  C 11.3392857142857 2.20486111111111  11.6785714285714 2.5  12 2.8125  C 12.3214285714286 2.5  12.6607142857143 2.20486111111111  13.0178571428571 1.92708333333333  C 13.375 1.64930555555555  13.8013392857143 1.35199652777778  14.296875 1.03515625  C 14.7924107142857 0.718315972222221  15.328125 0.466579861111109  15.9040178571429 0.279947916666667  C 16.4799107142857 0.093315972222221  17.0446428571429 0  17.5982142857143 0  C 19.5982142857143 0  21.1651785714286 0.538194444444444  22.2991071428571 1.61458333333333  C 23.4330357142857 2.69097222222222  24 4.18402777777778  24 6.09375  C 24 8.01215277777778  22.9776785714286 9.96527777777778  20.9330357142857 11.953125  L 12.5892857142857 19.765625  Z " stroke-width="4" stroke="#333333" fill="none" stroke-opacity="0.803921568627451" transform="matrix(1 0 0 1 538 857 )" mask="url(#clip8)" />
  </g>
</svg>