<?xml version="1.0" encoding="utf-8"?>
<svg version="1.1" xmlns:xlink="http://www.w3.org/1999/xlink" width="23px" height="15px" xmlns="http://www.w3.org/2000/svg">
  <g transform="matrix(1 0 0 1 -656 -103 )">
    <path d="M 15.3333333333333 12  L 2.55555555555556 12  L 2.55555555555556 3  L 15.3333333333333 3  L 15.3333333333333 12  Z M 21.7222222222222 1.875  L 21.7222222222222 3.75  C 22.0749421296296 3.75  22.3760850694444 3.896484375  22.6256510416667 4.189453125  C 22.8752170138889 4.482421875  23 4.8359375  23 5.25  L 23 9.75  C 23 10.1640625  22.8752170138889 10.517578125  22.6256510416667 10.810546875  C 22.3760850694444 11.103515625  22.0749421296296 11.25  21.7222222222222 11.25  L 21.7222222222222 13.125  C 21.7222222222222 13.640625  21.5658275462963 14.08203125  21.2530381944444 14.44921875  C 20.9402488425926 14.81640625  20.5642361111111 15  20.125 15  L 1.59722222222222 15  C 1.15798611111111 15  0.78197337962963 14.81640625  0.469184027777778 14.44921875  C 0.156394675925926 14.08203125  0 13.640625  0 13.125  L 0 1.875  C 0 1.359375  0.156394675925926 0.917968749999999  0.469184027777778 0.55078125  C 0.78197337962963 0.183593749999998  1.15798611111111 0  1.59722222222222 0  L 20.125 0  C 20.5642361111111 0  20.9402488425926 0.183593749999998  21.2530381944444 0.55078125  C 21.5658275462963 0.917968749999999  21.7222222222222 1.359375  21.7222222222222 1.875  Z M 20.4444444444444 9.75  L 21.7222222222222 9.75  L 21.7222222222222 5.25  L 20.4444444444444 5.25  L 20.4444444444444 1.875  C 20.4444444444444 1.765625  20.4144965277778 1.67578125  20.3546006944444 1.60546875  C 20.2947048611111 1.53515625  20.2181712962963 1.5  20.125 1.5  L 1.59722222222222 1.5  C 1.50405092592593 1.5  1.42751736111111 1.53515625  1.36762152777778 1.60546875  C 1.30772569444444 1.67578125  1.27777777777778 1.765625  1.27777777777778 1.875  L 1.27777777777778 13.125  C 1.27777777777778 13.234375  1.30772569444444 13.32421875  1.36762152777778 13.39453125  C 1.42751736111111 13.46484375  1.50405092592593 13.5  1.59722222222222 13.5  L 20.125 13.5  C 20.2181712962963 13.5  20.2947048611111 13.46484375  20.3546006944444 13.39453125  C 20.4144965277778 13.32421875  20.4444444444444 13.234375  20.4444444444444 13.125  L 20.4444444444444 9.75  Z " fill-rule="nonzero" fill="#000000" stroke="none" transform="matrix(1 0 0 1 656 103 )" />
  </g>
</svg>