<?xml version="1.0" encoding="utf-8"?>
<svg version="1.1" xmlns:xlink="http://www.w3.org/1999/xlink" width="17px" height="15px" xmlns="http://www.w3.org/2000/svg">
  <g transform="matrix(1 0 0 1 -590 -103 )">
    <path d="M 8.5 14.3303571428571  C 8.60897435897436 14.3303571428571  8.66346153846154 14.2857142857143  8.66346153846154 14.1964285714286  C 8.66346153846154 14.1071428571429  8.60897435897436 14.0625  8.5 14.0625  C 8.09815705128205 14.0625  7.75250400641026 13.9439174107143  7.46304086538462 13.7067522321429  C 7.17357772435898 13.4695870535714  7.02884615384615 13.1863839285714  7.02884615384615 12.8571428571429  C 7.02884615384615 12.7678571428571  6.97435897435898 12.7232142857143  6.86538461538462 12.7232142857143  C 6.75641025641026 12.7232142857143  6.70192307692308 12.7678571428571  6.70192307692308 12.8571428571429  C 6.70192307692308 13.2645089285714  6.87730368589744 13.6118861607143  7.22806490384615 13.8992745535714  C 7.57882612179487 14.1866629464286  8.00280448717949 14.3303571428571  8.5 14.3303571428571  Z M 4.57692307692308 4.82142857142857  C 4.57692307692308 7.79017857142857  3.67107371794872 10.1116071428571  1.859375 11.7857142857143  L 15.140625 11.7857142857143  C 13.3289262820513 10.1116071428571  12.4230769230769 7.79017857142857  12.4230769230769 4.82142857142857  C 12.4230769230769 4.53683035714286  12.3413461538462 4.24386160714286  12.1778846153846 3.94252232142857  C 12.0144230769231 3.64118303571429  11.7794471153846 3.35379464285714  11.4729567307692 3.08035714285714  C 11.1664663461538 2.80691964285714  10.7527043269231 2.58231026785714  10.2316706730769 2.40652901785714  C 9.71063701923077 2.23074776785714  9.13341346153846 2.14285714285714  8.5 2.14285714285714  C 7.86658653846154 2.14285714285714  7.28936298076923 2.23074776785714  6.76832932692308 2.40652901785714  C 6.24729567307692 2.58231026785714  5.83353365384615 2.80691964285714  5.52704326923077 3.08035714285714  C 5.22055288461538 3.35379464285714  4.98557692307692 3.64118303571429  4.82211538461538 3.94252232142857  C 4.65865384615385 4.24386160714286  4.57692307692308 4.53683035714286  4.57692307692308 4.82142857142857  Z M 16.0703125 11.0491071428571  C 16.3495592948718 11.3058035714286  16.6594551282051 11.5513392857143  17 11.7857142857143  C 17 12.0758928571429  16.8705929487179 12.3270089285714  16.6117788461538 12.5390625  C 16.3529647435897 12.7511160714286  16.0464743589744 12.8571428571429  15.6923076923077 12.8571428571429  L 11.1153846153846 12.8571428571429  C 11.1153846153846 13.4486607142857  10.8599759615385 13.9536830357143  10.3491586538462 14.3722098214286  C 9.83834134615385 14.7907366071429  9.22195512820513 15  8.5 15  C 7.77804487179487 15  7.16165865384615 14.7907366071429  6.65084134615385 14.3722098214286  C 6.14002403846154 13.9536830357143  5.88461538461538 13.4486607142857  5.88461538461538 12.8571428571429  L 1.30769230769231 12.8571428571429  C 0.953525641025641 12.8571428571429  0.647035256410257 12.7511160714286  0.388221153846154 12.5390625  C 0.129407051282051 12.3270089285714  0 12.0758928571429  0 11.7857142857143  C 0.340544871794872 11.5513392857143  0.650440705128205 11.3058035714286  0.9296875 11.0491071428571  C 1.2089342948718 10.7924107142857  1.49839743589744 10.458984375  1.79807692307692 10.048828125  C 2.09775641025641 9.638671875  2.35146233974359 9.19642857142857  2.55919471153846 8.72209821428572  C 2.76692708333333 8.24776785714286  2.93719951923077 7.67299107142857  3.07001201923077 6.99776785714286  C 3.20282451923077 6.32254464285714  3.26923076923077 5.59709821428571  3.26923076923077 4.82142857142857  C 3.26923076923077 3.97321428571428  3.66766826923077 3.18498883928571  4.46454326923077 2.45675223214286  C 5.26141826923077 1.728515625  6.30689102564103 1.28627232142857  7.60096153846154 1.13002232142857  C 7.54647435897436 1.02399553571428  7.51923076923077 0.915178571428572  7.51923076923077 0.803571428571429  C 7.51923076923077 0.580357142857142  7.61458333333333 0.390624999999999  7.80528846153846 0.234375  C 7.99599358974359 0.0781250000000006  8.2275641025641 0  8.5 0  C 8.7724358974359 0  9.00400641025641 0.0781250000000006  9.19471153846154 0.234375  C 9.38541666666667 0.390624999999999  9.48076923076923 0.580357142857142  9.48076923076923 0.803571428571429  C 9.48076923076923 0.915178571428572  9.45352564102564 1.02399553571428  9.39903846153846 1.13002232142857  C 10.693108974359 1.28627232142857  11.7385817307692 1.728515625  12.5354567307692 2.45675223214286  C 13.3323317307692 3.18498883928571  13.7307692307692 3.97321428571428  13.7307692307692 4.82142857142857  C 13.7307692307692 5.59709821428571  13.7971754807692 6.32254464285714  13.9299879807692 6.99776785714286  C 14.0628004807692 7.67299107142857  14.2330729166667 8.24776785714286  14.4408052884615 8.72209821428572  C 14.6485376602564 9.19642857142857  14.9022435897436 9.638671875  15.2019230769231 10.048828125  C 15.5016025641026 10.458984375  15.7910657051282 10.7924107142857  16.0703125 11.0491071428571  Z " fill-rule="nonzero" fill="#000000" stroke="none" transform="matrix(1 0 0 1 590 103 )" />
  </g>
</svg>