<?xml version="1.0" encoding="utf-8"?>
<svg version="1.1" xmlns:xlink="http://www.w3.org/1999/xlink" width="18px" height="14px" xmlns="http://www.w3.org/2000/svg">
  <g transform="matrix(1 0 0 1 -631 -104 )">
    <path d="M 9.85234215885947 13.2623655913978  C 9.40631364562118 13.7541218637993  9.12219959266803 14  9 14  C 8.87780040733198 14  8.59368635437882 13.7541218637993  8.14765784114053 13.2623655913978  C 7.70162932790224 12.7706093189964  7.4786150712831 12.457825567503  7.4786150712831 12.3240143369176  C 7.4786150712831 12.1099163679809  7.66955193482689 11.9292712066906  8.05142566191446 11.7820788530466  C 8.43329938900204 11.6348864994026  8.74949083503055 11.5612903225806  9 11.5612903225806  C 9.25050916496945 11.5612903225806  9.56670061099796 11.6348864994026  9.94857433808554 11.7820788530466  C 10.3304480651731 11.9292712066906  10.5213849287169 12.1099163679809  10.5213849287169 12.3240143369176  C 10.5213849287169 12.457825567503  10.2983706720978 12.7706093189964  9.85234215885947 13.2623655913978  Z M 12.331466395112 10.5275985663082  C 11.8701629327902 11.0293906810036  11.5845213849287 11.2802867383513  11.4745417515275 11.2802867383513  C 11.4623217922607 11.2802867383513  11.3401221995927 11.1966547192354  11.1079429735234 11.0293906810036  C 10.8757637474542 10.8621266427718  10.5656822810591 10.69486260454  10.1776985743381 10.5275985663082  C 9.78971486761711 10.3603345280765  9.39714867617108 10.2767025089606  9 10.2767025089606  C 8.60285132382892 10.2767025089606  8.21028513238289 10.3603345280765  7.82230142566191 10.5275985663082  C 7.43431771894094 10.69486260454  7.12576374745418 10.8621266427718  6.89663951120163 11.0293906810036  C 6.66751527494908 11.1966547192354  6.54378818737271 11.2802867383513  6.52545824847251 11.2802867383513  C 6.41547861507128 11.2802867383513  6.12983706720978 11.0293906810036  5.66853360488798 10.5275985663082  C 5.20723014256619 10.0258064516129  4.97657841140529 9.71469534050179  4.97657841140529 9.59426523297491  C 4.97657841140529 9.50728793309439  5.0071283095723 9.43034647550776  5.06822810590631 9.36344086021505  C 5.54480651731161 8.84826762246117  6.14358452138493 8.44348864994026  6.86456211812627 8.14910394265233  C 7.58553971486762 7.8547192353644  8.29735234215886 7.70752688172043  9 7.70752688172043  C 9.70264765784114 7.70752688172043  10.4144602851324 7.8547192353644  11.1354378818737 8.14910394265233  C 11.8564154786151 8.44348864994026  12.4551934826884 8.84826762246117  12.9317718940937 9.36344086021505  C 12.9928716904277 9.43034647550776  13.0234215885947 9.50728793309439  13.0234215885947 9.59426523297491  C 13.0234215885947 9.71469534050179  12.7927698574338 10.0258064516129  12.331466395112 10.5275985663082  Z M 14.8197556008147 7.79784946236559  C 14.3615071283096 8.29964157706093  14.0804480651731 8.5505376344086  13.9765784114053 8.5505376344086  C 13.9093686354379 8.5505376344086  13.8391038696538 8.52377538829152  13.765784114053 8.47025089605735  C 12.9348268839104 7.76774193548387  12.1649694501018 7.25089605734767  11.4562118126273 6.91971326164875  C 10.7474541751528 6.58853046594982  9.92871690427699 6.42293906810036  9 6.42293906810036  C 8.4806517311609 6.42293906810036  7.95977596741344 6.49653524492234  7.43737270875764 6.64372759856631  C 6.91496945010183 6.79091995221027  6.45977596741344 6.96821983273596  6.07179226069246 7.17562724014337  C 5.68380855397149 7.38303464755078  5.33706720977597 7.59044205495818  5.03156822810591 7.79784946236559  C 4.72606924643585 8.005256869773  4.4847250509165 8.18255675029868  4.30753564154786 8.32974910394265  C 4.13034623217923 8.47694145758662  4.03564154786151 8.5505376344086  4.0234215885947 8.5505376344086  C 3.91955193482688 8.5505376344086  3.63849287169043 8.29964157706093  3.18024439918534 7.79784946236559  C 2.72199592668024 7.29605734767025  2.4928716904277 6.98494623655914  2.4928716904277 6.86451612903226  C 2.4928716904277 6.784229390681  2.5234215885947 6.71063321385902  2.58452138492872 6.64372759856631  C 3.39103869653768 5.76057347670251  4.36863543788187 5.07479091995221  5.5173116089613 4.58637992831541  C 6.66598778004073 4.09796893667861  7.82688391038697 3.85376344086021  9 3.85376344086021  C 10.173116089613 3.85376344086021  11.3340122199593 4.09796893667861  12.4826883910387 4.58637992831541  C 13.6313645621181 5.07479091995221  14.6089613034623 5.76057347670251  15.4154786150713 6.64372759856631  C 15.4765784114053 6.71063321385902  15.5071283095723 6.784229390681  15.5071283095723 6.86451612903226  C 15.5071283095723 6.98494623655914  15.2780040733198 7.29605734767025  14.8197556008147 7.79784946236559  Z M 17.3080448065173 5.07813620071685  C 16.8467413441955 5.57992831541219  16.5641547861507 5.83082437275986  16.4602851323829 5.83082437275986  C 16.3930753564155 5.83082437275986  16.3258655804481 5.80071684587814  16.2586558044807 5.74050179211469  C 15.1649694501018 4.69008363201912  14.0300407331976 3.8989247311828  12.8538696537678 3.36702508960574  C 11.6776985743381 2.83512544802867  10.3930753564155 2.56917562724014  9 2.56917562724014  C 7.60692464358452 2.56917562724014  6.32230142566191 2.83512544802867  5.14613034623218 3.36702508960574  C 3.96995926680244 3.8989247311828  2.83503054989817 4.69008363201912  1.74134419551935 5.74050179211469  C 1.67413441955193 5.80071684587814  1.60692464358452 5.83082437275986  1.53971486761711 5.83082437275986  C 1.43584521384929 5.83082437275986  1.15325865580448 5.57992831541219  0.691955193482688 5.07813620071685  C 0.230651731160896 4.57634408602151  0 4.26523297491039  0 4.14480286738351  C 0 4.05782556750299  0.0305498981670061 3.98088410991637  0.0916496945010183 3.91397849462366  C 1.23421588594705 2.66953405017921  2.59368635437882 1.70609318996416  4.17006109979633 1.02365591397849  C 5.74643584521385 0.341218637992831  7.35641547861507 0  9 0  C 10.6435845213849 0  12.2535641547862 0.341218637992831  13.8299389002037 1.02365591397849  C 15.4063136456212 1.70609318996416  16.765784114053 2.66953405017921  17.908350305499 3.91397849462366  C 17.969450101833 3.98088410991637  18 4.05782556750299  18 4.14480286738351  C 18 4.26523297491039  17.7693482688391 4.57634408602151  17.3080448065173 5.07813620071685  Z " fill-rule="nonzero" fill="#000000" stroke="none" transform="matrix(1 0 0 1 631 104 )" />
  </g>
</svg>